<?xml version="1.0" encoding="UTF-8"?>
<svg id="Layer_2" data-name="Layer 2" xmlns="http://www.w3.org/2000/svg" viewBox="0 0 350.61 446.69">
  <defs>
    <style>
      .cls-1 {
        fill: #048a81;
      }

      .cls-2 {
        fill: #db5461;
      }

      .cls-3 {
        fill: none;
      }

      .cls-4 {
        fill: #2d2d34;
      }
    </style>
  </defs>
  <g id="Layer_1-2" data-name="Layer 1">
    <g>
      <path class="cls-3" d="M157.31,434.49c-.56-.32-1.19-.48-1.9-.48s-1.34,.16-1.9,.48-1,.78-1.33,1.36-.49,1.27-.49,2.05,.16,1.45,.49,2.04,.77,1.05,1.32,1.37,1.18,.48,1.89,.48,1.36-.16,1.92-.48c.56-.32,1-.78,1.32-1.37s.48-1.27,.48-2.04-.16-1.47-.48-2.05-.76-1.04-1.32-1.36Z"/>
      <path class="cls-3" d="M142.93,436.75h-4.7v5h4.7c1.16,0,2.06-.2,2.68-.6,.62-.4,.93-1.03,.93-1.91s-.31-1.49-.93-1.89c-.62-.4-1.52-.6-2.68-.6Z"/>
      <path class="cls-3" d="M169.69,434.49c-.56-.32-1.19-.48-1.9-.48s-1.34,.16-1.9,.48-1,.78-1.33,1.36-.49,1.27-.49,2.05,.16,1.45,.49,2.04,.77,1.05,1.32,1.37,1.18,.48,1.89,.48,1.36-.16,1.92-.48c.56-.32,1-.78,1.32-1.37s.48-1.27,.48-2.04-.16-1.47-.48-2.05-.76-1.04-1.32-1.36Z"/>
      <path class="cls-3" d="M262.34,378.39c1.15-.95,1.72-2.34,1.72-4.18s-.58-3.24-1.72-4.22c-1.15-.97-2.8-1.45-4.95-1.45h-8.59v11.27h8.59c2.15,0,3.8-.47,4.95-1.42Z"/>
      <path class="cls-3" d="M199.05,369.15c-4.34,0-7.81,1.41-10.39,4.21-2.58,2.81-3.87,6.62-3.87,11.42s1.29,8.55,3.87,11.39c2.58,2.84,6.04,4.26,10.39,4.26s7.73-1.43,10.31-4.29c2.58-2.86,3.87-6.65,3.87-11.35s-1.29-8.55-3.87-11.38c-2.58-2.84-6.02-4.26-10.31-4.26Z"/>
      <path class="cls-3" d="M230.73,434.49c-.56-.32-1.2-.48-1.91-.48s-1.32,.16-1.88,.48-1,.78-1.33,1.36-.49,1.27-.49,2.05,.16,1.45,.49,2.04,.77,1.05,1.33,1.37,1.19,.48,1.88,.48,1.35-.16,1.91-.48,1.01-.78,1.33-1.37,.48-1.27,.48-2.04-.16-1.47-.48-2.05-.77-1.04-1.33-1.36Z"/>
      <path class="cls-3" d="M258.32,389.39h-9.51v11.88h9.66c2.2,0,3.9-.5,5.1-1.49,1.2-1,1.8-2.44,1.8-4.33s-.63-3.37-1.88-4.45-2.98-1.61-5.17-1.61Z"/>
      <path class="cls-3" d="M46.88,437.32c-.05-.56-.17-1.08-.42-1.53-.31-.56-.73-1-1.26-1.32-.53-.32-1.15-.48-1.84-.48s-1.3,.16-1.84,.48c-.55,.32-.97,.76-1.27,1.33-.24,.45-.36,.97-.41,1.52h7.05Z"/>
      <path class="cls-3" d="M138.26,63.64c9.47-.13,18.94-.05,28.42-.05,9.47,0,18.95-.1,28.42,.05,3.27,.05,4.84-.85,4.71-4.41-.19-5.25,.11-10.53-.03-15.78-.23-8.71-6.64-15.27-15.39-15.42-11.75-.2-23.51-.21-35.26,.01-8.51,.16-14.9,6.66-15.17,15.09-.17,5.43,.07,10.88-.08,16.31-.09,3.24,1.28,4.24,4.38,4.2Z"/>
      <path class="cls-3" d="M66.64,437.32c-.05-.56-.17-1.08-.42-1.53-.31-.56-.73-1-1.26-1.32-.53-.32-1.15-.48-1.84-.48s-1.3,.16-1.84,.48c-.55,.32-.97,.76-1.27,1.33-.24,.45-.36,.97-.41,1.52h7.05Z"/>
      <path class="cls-3" d="M107.45,437.32c-.05-.56-.17-1.08-.42-1.53-.31-.56-.73-1-1.26-1.32-.53-.32-1.15-.48-1.84-.48s-1.3,.16-1.84,.48c-.55,.32-.97,.76-1.27,1.33-.24,.45-.36,.97-.41,1.52h7.05Z"/>
      <path class="cls-3" d="M142.47,435.59c1.06,0,1.89-.2,2.48-.61s.88-1.01,.88-1.81-.29-1.42-.88-1.82-1.42-.6-2.48-.6h-4.24v4.83h4.24Z"/>
      <path class="cls-3" d="M87.94,369.15c-4.34,0-7.81,1.41-10.39,4.21-2.58,2.81-3.87,6.62-3.87,11.42s1.29,8.55,3.87,11.39c2.58,2.84,6.04,4.26,10.39,4.26s7.73-1.43,10.31-4.29c2.58-2.86,3.87-6.65,3.87-11.35s-1.29-8.55-3.87-11.38c-2.58-2.84-6.02-4.26-10.31-4.26Z"/>
      <path class="cls-3" d="M314.84,438.27h-3.14c-.96,0-1.63,.17-2,.51-.37,.34-.56,.77-.56,1.27,0,.57,.22,1.03,.67,1.37,.44,.34,1.06,.51,1.86,.51,.76,0,1.42-.17,1.97-.52,.55-.35,.95-.85,1.21-1.51v-1.64Z"/>
      <path class="cls-3" d="M326.29,434.49c-.56-.32-1.2-.48-1.91-.48s-1.32,.16-1.88,.48-1,.78-1.33,1.36-.49,1.27-.49,2.05,.16,1.45,.49,2.04,.77,1.05,1.33,1.37,1.19,.48,1.88,.48,1.35-.16,1.91-.48,1.01-.78,1.33-1.37,.48-1.27,.48-2.04-.16-1.47-.48-2.05-.77-1.04-1.33-1.36Z"/>
      <path class="cls-3" d="M304.4,437.32c-.05-.56-.17-1.08-.42-1.53-.31-.56-.73-1-1.26-1.32-.53-.32-1.15-.48-1.84-.48s-1.3,.16-1.84,.48c-.55,.32-.97,.76-1.27,1.33-.24,.45-.36,.97-.41,1.52h7.05Z"/>
      <path class="cls-3" d="M341.06,437.32c-.05-.56-.17-1.08-.42-1.53-.31-.56-.73-1-1.26-1.32-.53-.32-1.15-.48-1.84-.48s-1.3,.16-1.84,.48c-.55,.32-.97,.76-1.27,1.33-.24,.45-.36,.97-.41,1.52h7.05Z"/>
      <path class="cls-3" d="M313.52,400.43c4.29,0,7.73-1.43,10.31-4.29,2.58-2.86,3.87-6.65,3.87-11.35s-1.29-8.55-3.87-11.38c-2.58-2.84-6.02-4.26-10.31-4.26s-7.81,1.41-10.39,4.21c-2.58,2.81-3.87,6.62-3.87,11.42s1.29,8.55,3.87,11.39c2.58,2.84,6.04,4.26,10.39,4.26Z"/>
      <path class="cls-3" d="M292.09,434.16c0-1.06-.35-1.89-1.04-2.47-.69-.58-1.7-.87-3.03-.87h-3.54v6.67h3.54c1.33,0,2.34-.29,3.03-.87,.69-.58,1.04-1.4,1.04-2.45Z"/>
      <path class="cls-1" d="M82.58,188.61c2.01,0,3.39,0,4.77,0,39.88,0,79.76,.02,119.64-.06,2.93,0,6.06-.23,8.76-1.25,8.36-3.15,10.48-13.99,3.61-19.68-2.57-2.13-6.61-3.44-9.99-3.46-40.23-.24-80.46-.15-120.69-.17-2.02,0-4.04-.19-5.98-.29v-27.2c2.04-.1,3.76-.25,5.47-.25,39.88-.01,79.77,.62,119.64-.25,23.8-.52,44.1,17.22,43.71,43.97-.65,44.7-.18,89.41-.18,134.05h47.42c-.18-2.52-.22-4.62-.48-6.69-2.12-16.89-4.24-33.79-6.42-50.67-6.92-53.78-13.9-107.55-20.71-161.34-.42-3.34-1.75-3.89-4.71-3.86-11.42,.14-22.84,.03-34.26,.06-1.32,0-2.64,.29-4.35,.49,0,5.47,.21,10.56-.14,15.61-.09,1.3-1.91,3.5-3,3.54-8.03,.3-16.08,.16-24.91,.16v-18.99c-1.25-.42-1.73-.73-2.22-.73-20.03-.04-40.05-.02-60.08-.12-2.88-.01-3.62,1.26-3.58,3.82,.09,5.2,.03,10.41,.03,15.61h-28.07v-19.43c-13.97,0-26.94-.09-39.91,.15-1.13,.02-3.03,2.09-3.21,3.39-3.67,27.12-7.17,54.27-10.63,81.42-4.48,35.17-8.89,70.36-13.34,105.53-1.33,10.57-2.68,21.13-4.06,32h47.86v-125.36Zm4.52-17.63c40.52,.17,81.03,.1,121.55,.08,4.03,0,7.77,.68,7.6,5.73-.16,4.58-3.68,5.4-7.52,5.39-20.17-.01-40.34,0-60.51,0v-.03c-20.35,0-40.69-.13-61.04,.1-4.51,.05-5.18-1.79-5.14-5.59,.04-3.68,.45-5.69,5.06-5.67Z"/>
      <path class="cls-2" d="M223.39,220.14c0-1.7,0-3.4,0-4.22H110.23v99h101.06c10.71-1.66,12.33-9.35,12.22-18.88-.31-25.29-.12-50.59-.13-75.89Z"/>
      <path class="cls-2" d="M211.3,341.95h18.28v-.1h-18.28v.1Z"/>
      <path class="cls-4" d="M110.23,341.95h101.06v-.1h119.3c-.93-7.83-1.72-15.13-2.67-22.41-4.74-36.71-9.57-73.41-14.27-110.13-6-46.83-12-93.66-17.72-140.52-.56-4.62-2.42-5.26-6.33-5.23-18.62,.14-37.24,.05-55.86,.03-1.85,0-3.69-.15-5.91-.25,0-6.43,0-12.22,0-18,0-25.92-18.79-45.02-44.63-45.26-10.36-.1-20.73-.09-31.09-.01-28.09,.21-46.29,18.64-46.29,46.8,0,5.39,0,10.77,0,16.73-2.63,0-4.51,0-6.4,0-18.45,0-36.89,.09-55.34-.07-3.98-.03-5.77,.77-6.33,5.29-4.62,37.8-9.56,75.57-14.41,113.35-5.87,45.77-11.77,91.53-17.62,137.3-.94,7.39-1.7,14.81-2.57,22.49H110.23Zm-71.46-59.99c4.44-35.18,8.85-70.36,13.34-105.53,3.46-27.15,6.97-54.3,10.63-81.42,.18-1.3,2.08-3.37,3.21-3.39,12.97-.24,25.94-.15,39.91-.15v19.43h28.07c0-5.2,.06-10.41-.03-15.61-.04-2.56,.7-3.84,3.58-3.82,20.03,.1,40.05,.08,60.08,.12,.48,0,.97,.31,2.22,.73v18.99c8.82,0,16.87,.14,24.91-.16,1.09-.04,2.91-2.24,3-3.54,.35-5.05,.14-10.14,.14-15.61,1.71-.2,3.03-.49,4.35-.49,11.42-.03,22.84,.09,34.26-.06,2.96-.04,4.28,.51,4.71,3.86,6.81,53.79,13.79,107.56,20.71,161.34,2.17,16.89,4.3,33.78,6.42,50.67,.26,2.07,.31,4.17,.48,6.69h-47.42c0-44.64-.47-89.35,.18-134.05,.39-26.75-19.91-44.48-43.71-43.97-39.86,.87-79.76,.24-119.64,.25-1.71,0-3.43,.15-5.47,.25v27.2c1.95,.1,3.96,.29,5.98,.29,40.23,.02,80.46-.06,120.69,.17,3.38,.02,7.42,1.34,9.99,3.46,6.87,5.69,4.76,16.53-3.61,19.68-2.7,1.02-5.83,1.24-8.76,1.25-39.88,.08-79.76,.06-119.64,.06-1.38,0-2.76,0-4.77,0v125.36H34.72c1.38-10.87,2.72-21.44,4.06-32Zm172.52,32.95H110.23v-99h113.15c0,.82,0,2.52,0,4.22,0,25.3-.18,50.6,.13,75.89,.12,9.54-1.51,17.22-12.22,18.88ZM133.96,43.12c.27-8.43,6.65-14.93,15.17-15.09,11.75-.22,23.51-.21,35.26-.01,8.76,.15,15.17,6.71,15.39,15.42,.14,5.26-.17,10.53,.03,15.78,.13,3.56-1.44,4.46-4.71,4.41-9.47-.15-18.94-.05-28.42-.05-9.47,0-18.95-.08-28.42,.05-3.11,.04-4.48-.96-4.38-4.2,.16-5.43-.09-10.88,.08-16.31Z"/>
      <path class="cls-4" d="M87.19,182.24c20.34-.24,40.69-.1,61.04-.1v.03c20.17,0,40.34,0,60.51,0,3.84,0,7.37-.81,7.52-5.39,.17-5.05-3.57-5.73-7.6-5.73-40.52,.02-81.04,.09-121.55-.08-4.61-.02-5.02,1.99-5.06,5.67-.04,3.8,.63,5.65,5.14,5.59Z"/>
      <path class="cls-4" d="M53.36,381.49H24.84v9.66h16.64c-1.02,3.07-2.65,5.42-4.87,7.05-2.22,1.64-4.94,2.45-8.16,2.45-4.7,0-8.4-1.39-11.08-4.18-2.68-2.78-4.03-6.65-4.03-11.61,0-4.65,1.28-8.37,3.83-11.16,2.55-2.78,5.95-4.18,10.2-4.18,2.45,0,4.59,.47,6.4,1.42,1.81,.95,3.21,2.32,4.18,4.1h14.49c-1.43-5.52-4.36-9.84-8.78-12.96-4.42-3.12-9.85-4.68-16.29-4.68-5.32,0-10.04,1.16-14.18,3.48-4.14,2.33-7.38,5.57-9.7,9.74-2.33,4.17-3.49,8.9-3.49,14.22s1.16,10.05,3.49,14.19c2.32,4.14,5.57,7.37,9.74,9.7s8.91,3.49,14.22,3.49c4.5,0,8.54-.87,12.12-2.61,3.58-1.74,6.53-4.01,8.86-6.83,2.32-2.81,3.97-5.85,4.94-9.12v-12.19Z"/>
      <path class="cls-4" d="M111.83,370.6c-2.43-4.19-5.75-7.47-9.97-9.81-4.22-2.35-8.85-3.53-13.92-3.53s-9.7,1.17-13.92,3.53c-4.22,2.35-7.56,5.62-10.04,9.81s-3.72,8.92-3.72,14.18,1.24,10.01,3.72,14.23c2.48,4.21,5.83,7.5,10.04,9.85,4.22,2.35,8.86,3.53,13.92,3.53s9.69-1.17,13.88-3.53c4.19-2.35,7.52-5.64,9.97-9.85,2.45-4.22,3.68-8.96,3.68-14.23s-1.21-9.99-3.64-14.18Zm-13.57,25.53c-2.58,2.86-6.02,4.29-10.31,4.29s-7.81-1.42-10.39-4.26c-2.58-2.84-3.87-6.63-3.87-11.39s1.29-8.61,3.87-11.42c2.58-2.81,6.04-4.21,10.39-4.21s7.73,1.42,10.31,4.26c2.58,2.84,3.87,6.63,3.87,11.38s-1.29,8.49-3.87,11.35Z"/>
      <path class="cls-4" d="M161.32,387.93c-1.58-2.05-3.46-3.61-5.64-4.68-2.17-1.07-5-2.19-8.47-3.37-3.48-1.12-6.03-2.17-7.67-3.14-1.64-.97-2.45-2.33-2.45-4.06,0-1.59,.48-2.8,1.45-3.64,.97-.84,2.25-1.27,3.84-1.27,1.84,0,3.35,.5,4.52,1.49,1.17,1,1.81,2.37,1.92,4.1h14.18c-.26-5.06-2.2-9.01-5.83-11.84-3.63-2.84-8.41-4.26-14.34-4.26s-10.56,1.42-14.19,4.26c-3.63,2.84-5.44,6.76-5.44,11.77,0,3.37,.79,6.11,2.38,8.2,1.58,2.1,3.47,3.68,5.67,4.75,2.2,1.08,5.03,2.15,8.51,3.22,2.4,.72,4.26,1.35,5.56,1.92,1.3,.57,2.4,1.28,3.3,2.15,.89,.87,1.34,1.97,1.34,3.3,0,1.58-.56,2.82-1.69,3.72-1.12,.9-2.66,1.34-4.6,1.34s-3.43-.52-4.6-1.57c-1.18-1.04-1.87-2.57-2.07-4.56h-13.96c.1,3.53,1.09,6.54,2.95,9.05s4.36,4.4,7.48,5.68,6.65,1.92,10.58,1.92,7.54-.74,10.5-2.22c2.97-1.48,5.23-3.48,6.79-5.98s2.34-5.29,2.34-8.36c0-3.22-.79-5.85-2.38-7.9Z"/>
      <path class="cls-4" d="M222.93,370.6c-2.43-4.19-5.75-7.47-9.97-9.81-4.22-2.35-8.85-3.53-13.92-3.53s-9.7,1.17-13.92,3.53c-4.22,2.35-7.56,5.62-10.04,9.81s-3.72,8.92-3.72,14.18,1.24,10.01,3.72,14.23c2.48,4.21,5.83,7.5,10.04,9.85,4.22,2.35,8.86,3.53,13.92,3.53s9.69-1.17,13.88-3.53c4.19-2.35,7.52-5.64,9.97-9.85,2.45-4.22,3.68-8.96,3.68-14.23s-1.21-9.99-3.64-14.18Zm-13.57,25.53c-2.58,2.86-6.02,4.29-10.31,4.29s-7.81-1.42-10.39-4.26c-2.58-2.84-3.87-6.63-3.87-11.39s1.29-8.61,3.87-11.42c2.58-2.81,6.04-4.21,10.39-4.21s7.73,1.42,10.31,4.26c2.58,2.84,3.87,6.63,3.87,11.38s-1.29,8.49-3.87,11.35Z"/>
      <path class="cls-4" d="M268.28,384.25c2.76-.82,4.97-2.27,6.63-4.37s2.49-4.73,2.49-7.9c0-4.29-1.55-7.69-4.64-10.2-3.09-2.5-7.37-3.75-12.84-3.75h-24.23v53.82h25.07c5.62,0,10.01-1.31,13.15-3.95,3.14-2.63,4.71-6.19,4.71-10.7,0-3.12-.95-5.89-2.84-8.32-1.89-2.43-4.4-3.97-7.51-4.64Zm-19.48-15.72h8.59c2.15,0,3.8,.48,4.95,1.45,1.15,.97,1.72,2.38,1.72,4.22s-.58,3.23-1.72,4.18c-1.15,.95-2.8,1.42-4.95,1.42h-8.59v-11.27Zm14.76,31.24c-1.2,1-2.9,1.49-5.1,1.49h-9.66v-11.88h9.51c2.2,0,3.92,.54,5.17,1.61s1.88,2.56,1.88,4.45-.6,3.34-1.8,4.33Z"/>
      <path class="cls-4" d="M313.52,412.39c5.06,0,9.69-1.17,13.88-3.53,4.19-2.35,7.52-5.64,9.97-9.85,2.45-4.22,3.68-8.96,3.68-14.23s-1.21-9.99-3.64-14.18c-2.43-4.19-5.75-7.47-9.97-9.81-4.22-2.35-8.85-3.53-13.92-3.53s-9.7,1.17-13.92,3.53c-4.22,2.35-7.56,5.62-10.04,9.81s-3.72,8.92-3.72,14.18,1.24,10.01,3.72,14.23c2.48,4.21,5.83,7.5,10.04,9.85,4.22,2.35,8.86,3.53,13.92,3.53Zm-10.39-39.03c2.58-2.81,6.04-4.21,10.39-4.21s7.73,1.42,10.31,4.26c2.58,2.84,3.87,6.63,3.87,11.38s-1.29,8.49-3.87,11.35c-2.58,2.86-6.02,4.29-10.31,4.29s-7.81-1.42-10.39-4.26c-2.58-2.84-3.87-6.63-3.87-11.39s1.29-8.61,3.87-11.42Z"/>
      <polygon class="cls-4" points="17.9 441.12 13.97 429.6 12.67 429.6 8.71 441.06 4.86 429.6 3.42 429.6 7.9 442.9 9.36 442.9 13.28 431.58 17.18 442.9 18.66 442.9 23.14 429.6 21.8 429.6 17.9 441.12"/>
      <path class="cls-4" d="M33.4,433.3c-.61-.31-1.33-.47-2.14-.47-.96,0-1.79,.21-2.49,.62-.55,.32-.94,.77-1.25,1.28v-5.93h-1.35v14.1h1.35v-5.25c0-.76,.14-1.41,.43-1.95,.29-.54,.69-.95,1.22-1.23,.53-.29,1.14-.43,1.85-.43,.95,0,1.69,.27,2.21,.81,.53,.54,.79,1.33,.79,2.39v5.66h1.35v-5.8c0-.96-.17-1.76-.52-2.39-.35-.63-.83-1.1-1.45-1.42Z"/>
      <path class="cls-4" d="M45.85,433.47c-.73-.42-1.56-.64-2.5-.64s-1.76,.22-2.5,.66c-.74,.44-1.32,1.03-1.75,1.8s-.64,1.64-.64,2.62,.22,1.87,.67,2.63c.44,.77,1.06,1.37,1.84,1.81,.79,.44,1.7,.66,2.74,.66,.8,0,1.53-.14,2.19-.42s1.22-.68,1.66-1.22l-.76-.87c-.38,.44-.83,.77-1.36,.99-.52,.22-1.09,.32-1.7,.32-.77,0-1.46-.16-2.06-.48-.6-.32-1.07-.77-1.41-1.35-.28-.48-.41-1.04-.46-1.64h8.36c0-.08,0-.15,0-.22s0-.14,0-.2c0-1-.21-1.89-.63-2.65-.42-.77-.99-1.36-1.72-1.79Zm-5.61,2.33c.3-.57,.73-1.01,1.27-1.33,.54-.32,1.16-.48,1.84-.48s1.31,.16,1.84,.48c.53,.32,.95,.76,1.26,1.32,.25,.45,.37,.97,.42,1.53h-7.05c.05-.55,.17-1.07,.41-1.52Z"/>
      <path class="cls-4" d="M52.7,434.93v-2.01h-1.29v9.98h1.35v-5.09c0-1.18,.3-2.09,.89-2.73,.59-.64,1.42-.96,2.47-.96,.05,0,.1,0,.15,0,.05,0,.1,0,.15,0v-1.31c-.98,0-1.79,.2-2.45,.6-.58,.35-.99,.87-1.27,1.5Z"/>
      <path class="cls-4" d="M65.62,433.47c-.73-.42-1.56-.64-2.5-.64s-1.76,.22-2.5,.66c-.74,.44-1.32,1.03-1.75,1.8s-.64,1.64-.64,2.62,.22,1.87,.67,2.63c.44,.77,1.06,1.37,1.84,1.81,.79,.44,1.7,.66,2.74,.66,.8,0,1.53-.14,2.19-.42s1.22-.68,1.66-1.22l-.76-.87c-.38,.44-.83,.77-1.36,.99-.52,.22-1.09,.32-1.7,.32-.77,0-1.46-.16-2.06-.48-.6-.32-1.07-.77-1.41-1.35-.28-.48-.41-1.04-.46-1.64h8.36c0-.08,0-.15,0-.22s0-.14,0-.2c0-1-.21-1.89-.63-2.65-.42-.77-.99-1.36-1.72-1.79Zm-5.61,2.33c.3-.57,.73-1.01,1.27-1.33,.54-.32,1.16-.48,1.84-.48s1.31,.16,1.84,.48c.53,.32,.95,.76,1.26,1.32,.25,.45,.37,.97,.42,1.53h-7.05c.05-.55,.17-1.07,.41-1.52Z"/>
      <polygon class="cls-4" points="78.3 436.75 85.18 436.75 85.18 435.55 78.3 435.55 78.3 430.81 86.02 430.81 86.02 429.6 76.9 429.6 76.9 442.9 86.3 442.9 86.3 441.69 78.3 441.69 78.3 436.75"/>
      <polygon class="cls-4" points="92.85 441.43 89.12 432.92 87.71 432.92 92.14 442.9 93.53 442.9 97.98 432.92 96.64 432.92 92.85 441.43"/>
      <path class="cls-4" d="M106.42,433.47c-.73-.42-1.56-.64-2.5-.64s-1.76,.22-2.5,.66c-.74,.44-1.32,1.03-1.75,1.8s-.64,1.64-.64,2.62,.22,1.87,.67,2.63c.44,.77,1.06,1.37,1.84,1.81,.79,.44,1.7,.66,2.74,.66,.8,0,1.53-.14,2.19-.42s1.22-.68,1.66-1.22l-.76-.87c-.38,.44-.83,.77-1.36,.99-.52,.22-1.09,.32-1.7,.32-.77,0-1.46-.16-2.06-.48-.6-.32-1.07-.77-1.41-1.35-.28-.48-.41-1.04-.46-1.64h8.36c0-.08,0-.15,0-.22s0-.14,0-.2c0-1-.21-1.89-.63-2.65-.42-.77-.99-1.36-1.72-1.79Zm-5.61,2.33c.3-.57,.73-1.01,1.27-1.33,.54-.32,1.16-.48,1.84-.48s1.31,.16,1.84,.48c.53,.32,.95,.76,1.26,1.32,.25,.45,.37,.97,.42,1.53h-7.05c.05-.55,.17-1.07,.41-1.52Z"/>
      <path class="cls-4" d="M113.27,434.93v-2.01h-1.29v9.98h1.35v-5.09c0-1.18,.3-2.09,.89-2.73,.59-.64,1.42-.96,2.47-.96,.05,0,.1,0,.15,0,.05,0,.1,0,.15,0v-1.31c-.98,0-1.79,.2-2.45,.6-.58,.35-.99,.87-1.27,1.5Z"/>
      <path class="cls-4" d="M123.65,441.41l-3.77-8.48h-1.41l4.46,9.95-.43,.98c-.29,.62-.6,1.05-.92,1.3-.32,.25-.71,.37-1.15,.37-.37,0-.7-.06-1-.2-.3-.13-.57-.32-.83-.56l-.63,1.01c.3,.3,.67,.53,1.09,.68,.42,.15,.87,.23,1.34,.23s.92-.08,1.31-.24c.39-.16,.76-.43,1.09-.81,.34-.38,.64-.89,.92-1.54l5-11.18h-1.33l-3.76,8.48Z"/>
      <path class="cls-4" d="M146,436.28c-.26-.11-.55-.18-.85-.24,.07-.03,.15-.04,.22-.07,.58-.25,1.03-.63,1.37-1.12s.5-1.1,.5-1.83c0-1.09-.41-1.93-1.23-2.53-.82-.6-1.97-.89-3.45-.89h-5.74v13.3h6.12c1.67,0,2.92-.31,3.75-.93,.83-.62,1.24-1.5,1.24-2.62,0-.76-.17-1.4-.51-1.91s-.82-.9-1.43-1.16Zm-3.53-5.52c1.06,0,1.89,.2,2.48,.6s.88,1,.88,1.82-.29,1.4-.88,1.81-1.42,.61-2.48,.61h-4.24v-4.83h4.24Zm3.14,10.39c-.62,.4-1.52,.6-2.68,.6h-4.7v-5h4.7c1.16,0,2.06,.2,2.68,.6,.62,.4,.93,1.03,.93,1.89s-.31,1.51-.93,1.91Z"/>
      <path class="cls-4" d="M158.03,433.49c-.77-.44-1.65-.66-2.63-.66s-1.84,.22-2.6,.65c-.76,.43-1.36,1.03-1.81,1.79-.45,.76-.67,1.64-.67,2.64s.22,1.85,.67,2.62c.44,.77,1.04,1.38,1.81,1.81,.76,.44,1.63,.66,2.6,.66s1.85-.22,2.62-.66c.77-.44,1.38-1.04,1.81-1.81,.44-.77,.66-1.65,.66-2.63s-.22-1.88-.66-2.63-1.04-1.35-1.81-1.79Zm.61,6.46c-.32,.59-.76,1.05-1.32,1.37-.56,.32-1.2,.48-1.92,.48s-1.34-.16-1.89-.48-.99-.78-1.32-1.37-.49-1.27-.49-2.04,.16-1.47,.49-2.05,.77-1.04,1.33-1.36,1.19-.48,1.9-.48,1.34,.16,1.9,.48c.56,.32,1,.78,1.32,1.36s.48,1.27,.48,2.05-.16,1.45-.48,2.04Z"/>
      <path class="cls-4" d="M170.4,433.49c-.77-.44-1.65-.66-2.63-.66s-1.84,.22-2.6,.65c-.76,.43-1.36,1.03-1.81,1.79-.45,.76-.67,1.64-.67,2.64s.22,1.85,.67,2.62c.44,.77,1.04,1.38,1.81,1.81,.76,.44,1.63,.66,2.6,.66s1.85-.22,2.62-.66c.77-.44,1.38-1.04,1.81-1.81,.44-.77,.66-1.65,.66-2.63s-.22-1.88-.66-2.63-1.04-1.35-1.81-1.79Zm.61,6.46c-.32,.59-.76,1.05-1.32,1.37-.56,.32-1.2,.48-1.92,.48s-1.34-.16-1.89-.48-.99-.78-1.32-1.37-.49-1.27-.49-2.04,.16-1.47,.49-2.05,.77-1.04,1.33-1.36,1.19-.48,1.9-.48,1.34,.16,1.9,.48c.56,.32,1,.78,1.32,1.36s.48,1.27,.48,2.05-.16,1.45-.48,2.04Z"/>
      <polygon class="cls-4" points="185.05 432.92 183.39 432.92 177.42 438.36 177.42 428.8 176.07 428.8 176.07 442.9 177.42 442.9 177.42 440.05 179.78 437.88 183.81 442.9 185.46 442.9 180.78 437 185.05 432.92"/>
      <polygon class="cls-4" points="193.67 442.9 195.08 442.9 195.08 437.26 201.96 437.26 201.96 436.04 195.08 436.04 195.08 430.81 202.8 430.81 202.8 429.6 193.67 429.6 193.67 442.9"/>
      <path class="cls-4" d="M206.56,428.8c-.28,0-.51,.09-.7,.27-.19,.19-.29,.41-.29,.68s.1,.49,.29,.68,.42,.29,.7,.29,.53-.1,.71-.29,.28-.42,.28-.7-.1-.49-.29-.67c-.19-.18-.42-.26-.7-.26Z"/>
      <rect class="cls-4" x="205.88" y="432.92" width="1.35" height="9.98"/>
      <path class="cls-4" d="M218.68,433.3c-.61-.31-1.33-.47-2.14-.47-.96,0-1.79,.21-2.49,.62-.58,.34-.99,.82-1.31,1.38v-1.9h-1.29v9.98h1.35v-5.25c0-.76,.14-1.41,.43-1.95,.29-.54,.69-.95,1.22-1.23,.53-.29,1.14-.43,1.85-.43,.95,0,1.69,.27,2.21,.81,.53,.54,.79,1.33,.79,2.39v5.66h1.35v-5.8c0-.96-.17-1.76-.52-2.39-.35-.63-.83-1.1-1.45-1.42Z"/>
      <path class="cls-4" d="M232.53,434.87c-.39-.61-.86-1.11-1.45-1.45-.69-.39-1.47-.59-2.35-.59-.95,0-1.8,.21-2.56,.64s-1.35,1.02-1.78,1.78c-.43,.76-.65,1.65-.65,2.66s.22,1.88,.65,2.65c.43,.77,1.02,1.37,1.78,1.8,.75,.43,1.61,.65,2.56,.65,.89,0,1.68-.2,2.37-.6,.62-.36,1.1-.88,1.49-1.52v2.03h1.29v-14.1h-1.35v6.06Zm-.47,5.08c-.32,.59-.77,1.05-1.33,1.37s-1.2,.48-1.91,.48-1.32-.16-1.88-.48-1-.78-1.33-1.37-.49-1.27-.49-2.04,.16-1.47,.49-2.05,.77-1.04,1.33-1.36,1.19-.48,1.88-.48,1.35,.16,1.91,.48,1.01,.78,1.33,1.36,.48,1.27,.48,2.05-.16,1.45-.48,2.04Z"/>
      <path class="cls-4" d="M243.62,438.05c-.39-.18-.81-.33-1.27-.44-.46-.11-.93-.2-1.39-.28-.46-.08-.89-.17-1.27-.29s-.7-.29-.93-.5-.35-.52-.35-.89c0-.48,.21-.88,.64-1.19,.42-.31,1.09-.47,1.99-.47,.51,0,1.01,.07,1.52,.2,.51,.13,.98,.35,1.42,.66l.59-1.08c-.42-.28-.95-.5-1.6-.68-.65-.17-1.29-.26-1.94-.26-.85,0-1.57,.12-2.16,.37-.59,.25-1.04,.59-1.34,1.02-.3,.43-.45,.92-.45,1.46s.12,1.03,.35,1.37c.23,.34,.54,.61,.92,.81,.38,.2,.8,.35,1.26,.45,.46,.1,.93,.19,1.4,.26s.89,.17,1.27,.28,.69,.27,.92,.48c.23,.21,.35,.5,.35,.87,0,.49-.21,.89-.63,1.19-.42,.3-1.1,.45-2.05,.45-.7,0-1.36-.11-2-.33-.63-.22-1.15-.48-1.56-.79l-.61,1.06c.42,.35,1,.65,1.73,.88,.74,.24,1.52,.35,2.34,.35,.87,0,1.62-.12,2.23-.35,.61-.23,1.08-.56,1.41-.99,.32-.42,.48-.93,.48-1.51,0-.55-.12-.98-.35-1.32s-.55-.6-.93-.78Z"/>
      <rect class="cls-4" x="253.55" y="429.6" width="1.41" height="13.3"/>
      <path class="cls-4" d="M262.76,441.84c-.56,0-.98-.16-1.28-.48-.3-.32-.45-.77-.45-1.35v-5.97h3.04v-1.12h-3.04v-2.2h-1.35v2.2h-1.79v1.12h1.79v6.04c0,.92,.25,1.64,.76,2.15,.51,.51,1.23,.76,2.17,.76,.39,0,.77-.06,1.15-.17,.38-.11,.7-.29,.96-.53l-.48-.97c-.39,.34-.89,.51-1.48,.51Z"/>
      <path class="cls-4" d="M273.15,438.05c-.39-.18-.81-.33-1.27-.44-.46-.11-.93-.2-1.39-.28-.46-.08-.89-.17-1.27-.29s-.7-.29-.93-.5-.35-.52-.35-.89c0-.48,.21-.88,.64-1.19,.42-.31,1.09-.47,1.99-.47,.51,0,1.01,.07,1.52,.2,.51,.13,.98,.35,1.42,.66l.59-1.08c-.42-.28-.95-.5-1.6-.68-.65-.17-1.29-.26-1.94-.26-.85,0-1.57,.12-2.16,.37-.59,.25-1.04,.59-1.34,1.02-.3,.43-.45,.92-.45,1.46s.12,1.03,.35,1.37c.23,.34,.54,.61,.92,.81,.38,.2,.8,.35,1.26,.45,.46,.1,.93,.19,1.4,.26s.89,.17,1.27,.28,.69,.27,.92,.48c.23,.21,.35,.5,.35,.87,0,.49-.21,.89-.63,1.19-.42,.3-1.1,.45-2.05,.45-.7,0-1.36-.11-2-.33-.63-.22-1.15-.48-1.56-.79l-.61,1.06c.42,.35,1,.65,1.73,.88,.74,.24,1.52,.35,2.34,.35,.87,0,1.62-.12,2.23-.35,.61-.23,1.08-.56,1.41-.99,.32-.42,.48-.93,.48-1.51,0-.55-.12-.98-.35-1.32s-.55-.6-.93-.78Z"/>
      <path class="cls-4" d="M290.97,438.14c.81-.36,1.43-.88,1.87-1.56,.44-.68,.66-1.48,.66-2.42s-.22-1.78-.66-2.46c-.44-.68-1.06-1.2-1.87-1.56-.81-.36-1.78-.54-2.91-.54h-4.98v13.3h1.41v-4.22h3.57c.38,0,.71-.05,1.05-.09l3.06,4.31h1.54l-3.28-4.6c.18-.06,.38-.09,.54-.16Zm-2.95-.66h-3.54v-6.67h3.54c1.33,0,2.34,.29,3.03,.87,.69,.58,1.04,1.41,1.04,2.47s-.35,1.87-1.04,2.45c-.69,.58-1.7,.87-3.03,.87Z"/>
      <path class="cls-4" d="M303.37,433.47c-.73-.42-1.56-.64-2.5-.64s-1.76,.22-2.5,.66c-.74,.44-1.32,1.03-1.75,1.8s-.64,1.64-.64,2.62,.22,1.87,.67,2.63c.44,.77,1.06,1.37,1.84,1.81,.79,.44,1.7,.66,2.74,.66,.8,0,1.53-.14,2.19-.42s1.22-.68,1.66-1.22l-.76-.87c-.38,.44-.83,.77-1.36,.99-.52,.22-1.09,.32-1.7,.32-.77,0-1.46-.16-2.06-.48-.6-.32-1.07-.77-1.41-1.35-.28-.48-.41-1.04-.46-1.64h8.36c0-.08,0-.15,0-.22s0-.14,0-.2c0-1-.21-1.89-.63-2.65-.42-.77-.99-1.36-1.72-1.79Zm-5.61,2.33c.3-.57,.73-1.01,1.27-1.33,.54-.32,1.16-.48,1.84-.48s1.31,.16,1.84,.48c.53,.32,.95,.76,1.26,1.32,.25,.45,.37,.97,.42,1.53h-7.05c.05-.55,.17-1.07,.41-1.52Z"/>
      <path class="cls-4" d="M312.14,432.83c-.78,0-1.53,.12-2.24,.35-.71,.23-1.32,.57-1.83,1l.61,1.01c.41-.35,.9-.64,1.48-.86,.58-.21,1.2-.32,1.84-.32,.94,0,1.65,.23,2.12,.68,.48,.46,.71,1.11,.71,1.96v.61h-3.17c-.95,0-1.71,.13-2.27,.39s-.97,.6-1.22,1.03c-.25,.42-.37,.9-.37,1.42,0,.57,.14,1.07,.44,1.51,.29,.44,.71,.78,1.26,1.03,.55,.25,1.2,.37,1.95,.37,.95,0,1.74-.2,2.37-.59,.48-.3,.81-.7,1.07-1.15v1.65h1.29v-6.2c0-1.3-.35-2.28-1.05-2.92-.71-.64-1.7-.96-3-.96Zm1.49,8.58c-.55,.35-1.21,.52-1.97,.52-.8,0-1.42-.17-1.86-.51-.45-.34-.67-.8-.67-1.37,0-.51,.19-.93,.56-1.27,.37-.34,1.04-.51,2-.51h3.14v1.64c-.26,.66-.66,1.16-1.21,1.51Z"/>
      <path class="cls-4" d="M328.09,434.87c-.39-.61-.86-1.11-1.45-1.45-.69-.39-1.47-.59-2.35-.59-.95,0-1.8,.21-2.56,.64s-1.35,1.02-1.78,1.78c-.43,.76-.65,1.65-.65,2.66s.22,1.88,.65,2.65c.43,.77,1.02,1.37,1.78,1.8,.75,.43,1.61,.65,2.56,.65,.89,0,1.68-.2,2.37-.6,.62-.36,1.1-.88,1.49-1.52v2.03h1.29v-14.1h-1.35v6.06Zm-.47,5.08c-.32,.59-.77,1.05-1.33,1.37s-1.2,.48-1.91,.48-1.32-.16-1.88-.48-1-.78-1.33-1.37-.49-1.27-.49-2.04,.16-1.47,.49-2.05,.77-1.04,1.33-1.36,1.19-.48,1.88-.48,1.35,.16,1.91,.48,1.01,.78,1.33,1.36,.48,1.27,.48,2.05-.16,1.45-.48,2.04Z"/>
      <path class="cls-4" d="M340.03,433.47c-.73-.42-1.56-.64-2.5-.64s-1.76,.22-2.5,.66c-.74,.44-1.32,1.03-1.75,1.8s-.64,1.64-.64,2.62,.22,1.87,.67,2.63c.44,.77,1.06,1.37,1.84,1.81,.79,.44,1.7,.66,2.74,.66,.8,0,1.53-.14,2.19-.42s1.22-.68,1.66-1.22l-.76-.87c-.38,.44-.83,.77-1.36,.99-.52,.22-1.09,.32-1.7,.32-.77,0-1.46-.16-2.06-.48-.6-.32-1.07-.77-1.41-1.35-.28-.48-.41-1.04-.46-1.64h8.36c0-.08,0-.15,0-.22s0-.14,0-.2c0-1-.21-1.89-.63-2.65-.42-.77-.99-1.36-1.72-1.79Zm-5.61,2.33c.3-.57,.73-1.01,1.27-1.33,.54-.32,1.16-.48,1.84-.48s1.31,.16,1.84,.48c.53,.32,.95,.76,1.26,1.32,.25,.45,.37,.97,.42,1.53h-7.05c.05-.55,.17-1.07,.41-1.52Z"/>
      <path class="cls-4" d="M348.16,433.43c-.58,.35-.99,.87-1.27,1.5v-2.01h-1.29v9.98h1.35v-5.09c0-1.18,.3-2.09,.89-2.73,.59-.64,1.42-.96,2.47-.96,.05,0,.1,0,.15,0,.05,0,.1,0,.15,0v-1.31c-.98,0-1.79,.2-2.45,.6Z"/>
    </g>
  </g>
</svg>