<?xml version="1.0" encoding="UTF-8"?>
<svg id="Layer_2" data-name="Layer 2" xmlns="http://www.w3.org/2000/svg" viewBox="0 0 351.11 447.19">
  <defs>
    <style>
      .cls-1 {
        fill: #fff;
      }

      .cls-2 {
        fill: #048a81;
      }

      .cls-3 {
        fill: #db5461;
      }

      .cls-4 {
        fill: none;
      }

      .cls-5 {
        fill: #2d2d34;
      }
    </style>
  </defs>
  <g id="Layer_1-2" data-name="Layer 1">
    <path class="cls-4" d="M138.26,63.64c9.47-.13,18.94-.05,28.42-.05,9.47,0,18.95-.1,28.42,.05,3.27,.05,4.84-.85,4.71-4.41-.19-5.25,.11-10.53-.03-15.78-.23-8.71-6.64-15.27-15.39-15.42-11.75-.2-23.51-.21-35.26,.01-8.51,.16-14.9,6.66-15.17,15.09-.17,5.43,.07,10.88-.08,16.31-.09,3.24,1.28,4.24,4.38,4.2Z"/>
    <path class="cls-2" d="M82.58,188.61c2.01,0,3.39,0,4.77,0,39.88,0,79.76,.02,119.64-.06,2.93,0,6.06-.23,8.76-1.25,8.36-3.15,10.48-13.99,3.61-19.68-2.57-2.13-6.61-3.44-9.99-3.46-40.23-.24-80.46-.15-120.69-.17-2.02,0-4.04-.19-5.98-.29v-27.2c2.04-.1,3.76-.25,5.47-.25,39.88-.01,79.77,.62,119.64-.25,23.8-.52,44.1,17.22,43.71,43.97-.65,44.7-.18,89.41-.18,134.05h47.42c-.18-2.52-.22-4.62-.48-6.69-2.12-16.89-4.24-33.79-6.42-50.67-6.92-53.78-13.9-107.55-20.71-161.34-.42-3.34-1.75-3.89-4.71-3.86-11.42,.14-22.84,.03-34.26,.06-1.32,0-2.64,.29-4.35,.49,0,5.47,.21,10.56-.14,15.61-.09,1.3-1.91,3.5-3,3.54-8.03,.3-16.08,.16-24.91,.16v-18.99c-1.25-.42-1.73-.73-2.22-.73-20.03-.04-40.05-.02-60.08-.12-2.88-.01-3.62,1.26-3.58,3.82,.09,5.2,.03,10.41,.03,15.61h-28.07v-19.43c-13.97,0-26.94-.09-39.91,.15-1.13,.02-3.03,2.09-3.21,3.39-3.67,27.12-7.17,54.27-10.63,81.42-4.48,35.17-8.89,70.36-13.34,105.53-1.33,10.57-2.68,21.13-4.06,32h47.86v-125.36Zm4.52-17.63c40.52,.17,81.03,.1,121.55,.08,4.03,0,7.77,.68,7.6,5.73-.16,4.58-3.68,5.4-7.52,5.39-20.17-.01-40.34,0-60.51,0v-.03c-20.35,0-40.69-.13-61.04,.1-4.51,.05-5.18-1.79-5.14-5.59,.04-3.68,.45-5.69,5.06-5.67Z"/>
    <path class="cls-3" d="M223.39,220.14c0-1.7,0-3.4,0-4.22H110.23v99h101.06c10.71-1.66,12.33-9.35,12.22-18.88-.31-25.29-.12-50.59-.13-75.89Z"/>
    <path class="cls-3" d="M211.3,341.95h18.28v-.1h-18.28v.1Z"/>
    <path class="cls-5" d="M110.23,341.95h101.06v-.1h119.3c-.93-7.83-1.72-15.13-2.67-22.41-4.74-36.71-9.57-73.41-14.27-110.13-6-46.83-12-93.66-17.72-140.52-.56-4.62-2.42-5.26-6.33-5.23-18.62,.14-37.24,.05-55.86,.03-1.85,0-3.69-.15-5.91-.25,0-6.43,0-12.22,0-18,0-25.92-18.79-45.02-44.63-45.26-10.36-.1-20.73-.09-31.09-.01-28.09,.21-46.29,18.64-46.29,46.8,0,5.39,0,10.77,0,16.73-2.63,0-4.51,0-6.4,0-18.45,0-36.89,.09-55.34-.07-3.98-.03-5.77,.77-6.33,5.29-4.62,37.8-9.56,75.57-14.41,113.35-5.87,45.77-11.77,91.53-17.62,137.3-.94,7.39-1.7,14.81-2.57,22.49H110.23Zm-71.46-59.99c4.44-35.18,8.85-70.36,13.34-105.53,3.46-27.15,6.97-54.3,10.63-81.42,.18-1.3,2.08-3.37,3.21-3.39,12.97-.24,25.94-.15,39.91-.15v19.43h28.07c0-5.2,.06-10.41-.03-15.61-.04-2.56,.7-3.84,3.58-3.82,20.03,.1,40.05,.08,60.08,.12,.48,0,.97,.31,2.22,.73v18.99c8.82,0,16.87,.14,24.91-.16,1.09-.04,2.91-2.24,3-3.54,.35-5.05,.14-10.14,.14-15.61,1.71-.2,3.03-.49,4.35-.49,11.42-.03,22.84,.09,34.26-.06,2.96-.04,4.28,.51,4.71,3.86,6.81,53.79,13.79,107.56,20.71,161.34,2.17,16.89,4.3,33.78,6.42,50.67,.26,2.07,.31,4.17,.48,6.69h-47.42c0-44.64-.47-89.35,.18-134.05,.39-26.75-19.91-44.48-43.71-43.97-39.86,.87-79.76,.24-119.64,.25-1.71,0-3.43,.15-5.47,.25v27.2c1.95,.1,3.96,.29,5.98,.29,40.23,.02,80.46-.06,120.69,.17,3.38,.02,7.42,1.34,9.99,3.46,6.87,5.69,4.76,16.53-3.61,19.68-2.7,1.02-5.83,1.24-8.76,1.25-39.88,.08-79.76,.06-119.64,.06-1.38,0-2.76,0-4.77,0v125.36H34.72c1.38-10.87,2.72-21.44,4.06-32Zm172.52,32.95H110.23v-99h113.15c0,.82,0,2.52,0,4.22,0,25.3-.18,50.6,.13,75.89,.12,9.54-1.51,17.22-12.22,18.88ZM133.96,43.12c.27-8.43,6.65-14.93,15.17-15.09,11.75-.22,23.51-.21,35.26-.01,8.76,.15,15.17,6.71,15.39,15.42,.14,5.26-.17,10.53,.03,15.78,.13,3.56-1.44,4.46-4.71,4.41-9.47-.15-18.94-.05-28.42-.05-9.47,0-18.95-.08-28.42,.05-3.11,.04-4.48-.96-4.38-4.2,.16-5.43-.09-10.88,.08-16.31Z"/>
    <path class="cls-5" d="M87.19,182.24c20.34-.24,40.69-.1,61.04-.1v.03c20.17,0,40.34,0,60.51,0,3.84,0,7.37-.81,7.52-5.39,.17-5.05-3.57-5.73-7.6-5.73-40.52,.02-81.04,.09-121.55-.08-4.61-.02-5.02,1.99-5.06,5.67-.04,3.8,.63,5.65,5.14,5.59Z"/>
    <path class="cls-1" d="M53.36,381.49H24.84v9.66h16.64c-1.02,3.07-2.65,5.42-4.87,7.05-2.22,1.64-4.94,2.45-8.16,2.45-4.7,0-8.4-1.39-11.08-4.18-2.68-2.78-4.03-6.65-4.03-11.61,0-4.65,1.28-8.37,3.83-11.16,2.55-2.78,5.95-4.18,10.2-4.18,2.45,0,4.59,.47,6.4,1.42,1.81,.95,3.21,2.32,4.18,4.1h14.49c-1.43-5.52-4.36-9.84-8.78-12.96-4.42-3.12-9.85-4.68-16.29-4.68-5.32,0-10.04,1.16-14.18,3.48-4.14,2.33-7.38,5.57-9.7,9.74-2.33,4.17-3.49,8.9-3.49,14.22s1.16,10.05,3.49,14.19c2.32,4.14,5.57,7.37,9.74,9.7,4.17,2.32,8.91,3.49,14.22,3.49,4.5,0,8.54-.87,12.12-2.61,3.58-1.74,6.53-4.01,8.86-6.83,2.32-2.81,3.97-5.85,4.94-9.12v-12.19Z"/>
    <path class="cls-1" d="M111.83,370.6c-2.43-4.19-5.75-7.47-9.97-9.81-4.22-2.35-8.85-3.53-13.92-3.53s-9.7,1.17-13.92,3.53c-4.22,2.35-7.56,5.62-10.04,9.81-2.48,4.19-3.72,8.92-3.72,14.18s1.24,10.01,3.72,14.23c2.48,4.21,5.83,7.5,10.04,9.85,4.22,2.35,8.86,3.53,13.92,3.53s9.69-1.17,13.88-3.53c4.19-2.35,7.52-5.64,9.97-9.85,2.45-4.22,3.68-8.96,3.68-14.23s-1.21-9.99-3.64-14.18Zm-13.57,25.53c-2.58,2.86-6.02,4.29-10.31,4.29s-7.81-1.42-10.39-4.26c-2.58-2.84-3.87-6.63-3.87-11.39s1.29-8.61,3.87-11.42c2.58-2.81,6.04-4.21,10.39-4.21s7.73,1.42,10.31,4.26c2.58,2.84,3.87,6.63,3.87,11.38s-1.29,8.49-3.87,11.35Z"/>
    <path class="cls-1" d="M161.32,387.93c-1.58-2.05-3.46-3.61-5.64-4.68-2.17-1.07-5-2.19-8.47-3.37-3.48-1.12-6.03-2.17-7.67-3.14-1.64-.97-2.45-2.33-2.45-4.06,0-1.59,.48-2.8,1.45-3.64,.97-.84,2.25-1.27,3.84-1.27,1.84,0,3.35,.5,4.52,1.49,1.17,1,1.81,2.37,1.92,4.1h14.18c-.26-5.06-2.2-9.01-5.83-11.84-3.63-2.84-8.41-4.26-14.34-4.26s-10.56,1.42-14.19,4.26c-3.63,2.84-5.44,6.76-5.44,11.77,0,3.37,.79,6.11,2.38,8.2,1.58,2.1,3.47,3.68,5.67,4.75,2.2,1.08,5.03,2.15,8.51,3.22,2.4,.72,4.26,1.35,5.56,1.92,1.3,.57,2.4,1.28,3.3,2.15,.89,.87,1.34,1.97,1.34,3.3,0,1.58-.56,2.82-1.69,3.72-1.12,.9-2.66,1.34-4.6,1.34s-3.43-.52-4.6-1.57c-1.18-1.04-1.87-2.57-2.07-4.56h-13.96c.1,3.53,1.09,6.54,2.95,9.05,1.87,2.51,4.36,4.4,7.48,5.68,3.12,1.28,6.65,1.92,10.58,1.92s7.54-.74,10.5-2.22c2.97-1.48,5.23-3.48,6.79-5.98s2.34-5.29,2.34-8.36c0-3.22-.79-5.85-2.38-7.9Z"/>
    <path class="cls-1" d="M222.93,370.6c-2.43-4.19-5.75-7.47-9.97-9.81-4.22-2.35-8.85-3.53-13.92-3.53s-9.7,1.17-13.92,3.53c-4.22,2.35-7.56,5.62-10.04,9.81s-3.72,8.92-3.72,14.18,1.24,10.01,3.72,14.23c2.48,4.21,5.83,7.5,10.04,9.85,4.22,2.35,8.86,3.53,13.92,3.53s9.69-1.17,13.88-3.53c4.19-2.35,7.52-5.64,9.97-9.85,2.45-4.22,3.68-8.96,3.68-14.23s-1.21-9.99-3.64-14.18Zm-13.57,25.53c-2.58,2.86-6.02,4.29-10.31,4.29s-7.81-1.42-10.39-4.26c-2.58-2.84-3.87-6.63-3.87-11.39s1.29-8.61,3.87-11.42c2.58-2.81,6.04-4.21,10.39-4.21s7.73,1.42,10.31,4.26c2.58,2.84,3.87,6.63,3.87,11.38s-1.29,8.49-3.87,11.35Z"/>
    <path class="cls-1" d="M268.28,384.25c2.76-.82,4.97-2.27,6.63-4.37s2.49-4.73,2.49-7.9c0-4.29-1.55-7.69-4.64-10.2-3.09-2.5-7.37-3.75-12.84-3.75h-24.23v53.82h25.07c5.62,0,10.01-1.31,13.15-3.95,3.14-2.63,4.71-6.19,4.71-10.7,0-3.12-.95-5.89-2.84-8.32-1.89-2.43-4.4-3.97-7.51-4.64Zm-19.48-15.72h8.59c2.15,0,3.8,.48,4.95,1.45,1.15,.97,1.72,2.38,1.72,4.22s-.58,3.23-1.72,4.18c-1.15,.95-2.8,1.42-4.95,1.42h-8.59v-11.27Zm14.76,31.24c-1.2,1-2.9,1.49-5.1,1.49h-9.66v-11.88h9.51c2.2,0,3.92,.54,5.17,1.61,1.25,1.07,1.88,2.56,1.88,4.45s-.6,3.34-1.8,4.33Z"/>
    <path class="cls-1" d="M313.52,412.39c5.06,0,9.69-1.17,13.88-3.53,4.19-2.35,7.52-5.64,9.97-9.85,2.45-4.22,3.68-8.96,3.68-14.23s-1.21-9.99-3.64-14.18c-2.43-4.19-5.75-7.47-9.97-9.81-4.22-2.35-8.85-3.53-13.92-3.53s-9.7,1.17-13.92,3.53c-4.22,2.35-7.56,5.62-10.04,9.81s-3.72,8.92-3.72,14.18,1.24,10.01,3.72,14.23c2.48,4.21,5.83,7.5,10.04,9.85,4.22,2.35,8.86,3.53,13.92,3.53Zm-10.39-39.03c2.58-2.81,6.04-4.21,10.39-4.21s7.73,1.42,10.31,4.26c2.58,2.84,3.87,6.63,3.87,11.38s-1.29,8.49-3.87,11.35c-2.58,2.86-6.02,4.29-10.31,4.29s-7.81-1.42-10.39-4.26c-2.58-2.84-3.87-6.63-3.87-11.39s1.29-8.61,3.87-11.42Z"/>
    <g>
      <polygon class="cls-1" points="17.9 439.56 14.32 429.1 12.32 429.1 8.71 439.51 5.22 429.1 2.72 429.1 7.54 443.4 9.72 443.4 13.28 433.11 16.82 443.4 19.02 443.4 23.84 429.1 21.44 429.1 17.9 439.56"/>
      <path class="cls-1" d="M33.62,432.85c-.68-.34-1.48-.52-2.36-.52-1.05,0-1.97,.23-2.75,.69-.18,.1-.34,.22-.5,.35v-5.07h-2.35v15.1h2.35v-5.75c0-.68,.12-1.25,.37-1.71,.24-.45,.57-.79,1.01-1.03,.45-.24,.99-.37,1.62-.37,.82,0,1.42,.21,1.86,.66,.43,.44,.65,1.12,.65,2.04v6.16h2.35v-6.3c0-1.04-.2-1.93-.58-2.64-.4-.72-.95-1.26-1.66-1.62Z"/>
      <path class="cls-1" d="M46.1,433.04c-1.6-.93-3.87-.95-5.5,.02-.81,.48-1.46,1.15-1.93,1.98-.46,.83-.7,1.8-.7,2.87s.25,2.05,.73,2.88c.49,.84,1.17,1.51,2.03,1.99,.86,.48,1.86,.72,2.98,.72,.86,0,1.66-.15,2.39-.46,.74-.31,1.36-.77,1.86-1.36l.27-.33-1.42-1.63-.38,.44c-.33,.39-.71,.66-1.17,.85-1.04,.43-2.39,.36-3.34-.14-.52-.28-.92-.66-1.21-1.16-.15-.25-.25-.55-.32-.89h8.29v-.5c0-.06,0-.12,0-.17,0-.09,.01-.17,.01-.25,0-1.08-.23-2.05-.69-2.89-.46-.84-1.1-1.51-1.91-1.98Zm.2,3.78h-5.9c.06-.3,.15-.56,.27-.79,.26-.49,.62-.86,1.09-1.13,.94-.55,2.27-.54,3.18,0,.46,.27,.81,.64,1.08,1.13,.12,.23,.22,.49,.28,.79Z"/>
      <path class="cls-1" d="M53.72,433c-.18,.11-.36,.24-.52,.38v-.96h-2.29v10.98h2.35v-5.59c0-1.04,.25-1.85,.76-2.39,.5-.54,1.19-.8,2.11-.8h.08c.07,.01,.15,.02,.22,.02h.5v-2.31h-.5c-1.07,0-1.98,.23-2.71,.67Z"/>
      <path class="cls-1" d="M65.87,433.04c-1.6-.93-3.87-.95-5.5,.02-.82,.48-1.47,1.15-1.93,1.98-.46,.83-.7,1.8-.7,2.87s.25,2.05,.73,2.88c.49,.84,1.17,1.51,2.03,1.99,.86,.48,1.86,.72,2.98,.72,.86,0,1.67-.15,2.39-.46,.74-.31,1.36-.77,1.86-1.36l.27-.33-1.42-1.63-.38,.44c-.33,.39-.71,.67-1.17,.85-1.04,.43-2.39,.36-3.34-.14-.52-.28-.92-.66-1.21-1.16-.15-.25-.25-.55-.32-.89h8.29v-.5c0-.06,0-.12,0-.17,0-.09,.01-.17,.01-.25,0-1.08-.23-2.05-.69-2.89-.46-.84-1.1-1.51-1.91-1.98Zm.2,3.78h-5.9c.06-.3,.15-.56,.27-.79,.26-.49,.62-.86,1.08-1.13,.93-.54,2.28-.54,3.18,0,.45,.27,.82,.65,1.08,1.13,.12,.23,.22,.49,.28,.79Z"/>
      <polygon class="cls-1" points="78.8 437.24 85.68 437.24 85.68 435.05 78.8 435.05 78.8 431.32 86.52 431.32 86.52 429.1 76.4 429.1 76.4 443.4 86.8 443.4 86.8 441.19 78.8 441.19 78.8 437.24"/>
      <polygon class="cls-1" points="96.32 432.42 92.86 440.2 89.44 432.42 86.94 432.42 91.81 443.4 93.85 443.4 98.75 432.42 96.32 432.42"/>
      <path class="cls-1" d="M106.67,433.04c-1.6-.93-3.87-.95-5.5,.02-.82,.48-1.47,1.15-1.93,1.98-.46,.83-.7,1.8-.7,2.87s.25,2.05,.73,2.88c.49,.84,1.17,1.51,2.03,1.99,.86,.48,1.86,.72,2.98,.72,.86,0,1.67-.15,2.39-.46,.74-.31,1.36-.77,1.86-1.36l.27-.33-1.42-1.63-.38,.44c-.33,.39-.71,.67-1.17,.85-1.04,.43-2.39,.36-3.34-.14-.52-.28-.92-.66-1.21-1.16-.15-.25-.25-.55-.32-.89h8.29v-.5c0-.06,0-.12,0-.17,0-.09,.01-.17,.01-.25,0-1.08-.23-2.05-.69-2.89-.46-.84-1.1-1.51-1.91-1.98Zm-5.42,2.99c.26-.49,.62-.86,1.08-1.13,.93-.54,2.28-.54,3.18,0,.45,.27,.82,.65,1.08,1.13,.12,.23,.22,.49,.28,.79h-5.9c.06-.3,.15-.56,.27-.79Z"/>
      <path class="cls-1" d="M117.5,432.33h-.5c-1.06,0-1.98,.23-2.71,.67-.18,.11-.36,.24-.52,.38v-.96h-2.29v10.98h2.35v-5.59c0-1.04,.26-1.85,.76-2.39,.5-.54,1.19-.8,2.1-.8h.08c.07,.02,.15,.02,.22,.02h.5v-2.31Z"/>
      <path class="cls-1" d="M123.65,440.17l-3.44-7.75h-2.5l4.69,10.46-.34,.76c-.32,.68-.6,.98-.77,1.12-.45,.34-1.16,.33-1.64,.11-.24-.11-.47-.26-.69-.47l-.44-.42-1.16,1.86,.28,.28c.35,.35,.78,.62,1.28,.8,.48,.17,.99,.26,1.51,.26s1.05-.09,1.5-.27c.46-.19,.89-.5,1.28-.94,.37-.42,.71-.98,1-1.67l5.32-11.88h-2.43l-3.44,7.75Z"/>
      <path class="cls-1" d="M146.41,435.92c.28-.22,.53-.49,.74-.79,.39-.58,.59-1.29,.59-2.11,0-1.25-.48-2.24-1.43-2.93-.9-.66-2.16-.99-3.74-.99h-6.24v14.3h6.62c1.77,0,3.14-.35,4.05-1.03,.96-.72,1.44-1.74,1.44-3.02,0-.86-.2-1.59-.6-2.19-.35-.53-.83-.95-1.43-1.24Zm-1.08,4.8c-.54,.34-1.35,.52-2.41,.52h-4.2v-4h4.2c1.06,0,1.87,.17,2.41,.52,.47,.3,.7,.79,.7,1.47s-.23,1.18-.7,1.49Zm-.67-6.16c-.5,.34-1.24,.52-2.2,.52h-3.74v-3.83h3.74c.96,0,1.7,.17,2.2,.51,.45,.31,.66,.75,.66,1.4s-.21,1.08-.67,1.39Z"/>
      <path class="cls-1" d="M158.28,433.05c-.84-.48-1.81-.72-2.88-.72s-2.02,.24-2.85,.71c-.83,.47-1.5,1.13-1.99,1.97-.49,.83-.73,1.8-.73,2.9s.25,2.03,.73,2.87c.49,.85,1.16,1.52,1.99,2,.83,.48,1.79,.72,2.85,.72s2.03-.24,2.87-.72c.85-.48,1.53-1.15,2-1.99,.48-.84,.72-1.81,.72-2.88s-.24-2.05-.72-2.88c-.48-.83-1.15-1.49-1.99-1.97Zm-.08,6.66h0c-.28,.51-.65,.9-1.13,1.18-.95,.55-2.34,.56-3.31,0-.48-.28-.85-.66-1.14-1.18-.29-.51-.43-1.12-.43-1.8s.14-1.3,.43-1.81c.28-.5,.67-.9,1.14-1.17,.49-.28,1.03-.42,1.65-.42s1.17,.14,1.65,.42h0c.48,.28,.85,.66,1.13,1.17,.28,.5,.42,1.11,.42,1.81s-.14,1.29-.42,1.8Z"/>
      <path class="cls-1" d="M170.65,433.05c-.84-.48-1.81-.72-2.88-.72s-2.02,.24-2.85,.71c-.83,.47-1.5,1.13-1.99,1.97-.49,.83-.74,1.8-.74,2.9s.25,2.03,.73,2.87c.49,.85,1.15,1.52,1.99,2,.83,.48,1.79,.72,2.85,.72s2.02-.24,2.87-.72c.85-.48,1.52-1.15,2-1.99s.72-1.81,.72-2.88-.24-2.05-.72-2.88c-.48-.83-1.15-1.49-1.99-1.97Zm-1.21,1.87c.48,.28,.86,.67,1.13,1.17,.28,.51,.42,1.11,.42,1.81s-.14,1.29-.42,1.8h0c-.28,.51-.66,.9-1.13,1.18-.95,.55-2.34,.56-3.31,0-.47-.28-.85-.66-1.13-1.18-.29-.51-.43-1.12-.43-1.8s.14-1.3,.43-1.81c.28-.5,.67-.9,1.14-1.17,.48-.28,1.03-.42,1.65-.42s1.16,.14,1.65,.42Z"/>
      <polygon class="cls-1" points="186.29 432.42 183.2 432.42 177.92 437.23 177.92 428.3 175.57 428.3 175.57 443.4 177.92 443.4 177.92 440.27 179.72 438.61 183.57 443.4 186.5 443.4 181.46 437.05 186.29 432.42"/>
      <polygon class="cls-1" points="193.17 443.4 195.58 443.4 195.58 437.76 202.46 437.76 202.46 435.54 195.58 435.54 195.58 431.32 203.3 431.32 203.3 429.1 193.17 429.1 193.17 443.4"/>
      <path class="cls-1" d="M205.51,428.72c-.29,.28-.44,.63-.44,1.03s.15,.76,.43,1.04,.65,.43,1.06,.43,.8-.15,1.07-.44c.27-.28,.41-.65,.41-1.05s-.15-.76-.45-1.03c-.57-.52-1.53-.52-2.09,.02Z"/>
      <rect class="cls-1" x="205.38" y="432.42" width="2.35" height="10.98"/>
      <path class="cls-1" d="M218.9,432.85c-.68-.34-1.48-.52-2.36-.52-1.05,0-1.97,.23-2.75,.69-.2,.12-.38,.25-.56,.4v-.99h-2.29v10.98h2.35v-5.75c0-.69,.12-1.25,.37-1.71,.24-.45,.57-.79,1.01-1.03,.45-.24,.99-.37,1.62-.37,.82,0,1.42,.21,1.86,.66,.43,.44,.65,1.12,.65,2.04v6.16h2.35v-6.3c0-1.04-.2-1.93-.58-2.64-.4-.72-.96-1.26-1.66-1.62Z"/>
      <path class="cls-1" d="M232.03,433.49c-.22-.2-.46-.37-.71-.51-.77-.43-1.64-.65-2.59-.65-1.03,0-1.98,.24-2.8,.7-.83,.47-1.49,1.13-1.97,1.97-.47,.83-.71,1.81-.71,2.91s.24,2.06,.71,2.9c.47,.85,1.14,1.51,1.96,1.98,.83,.47,1.77,.71,2.81,.71,.97,0,1.85-.22,2.62-.67,.26-.15,.51-.33,.74-.55v1.12h2.29v-15.1h-2.35v5.19Zm-.41,6.21h0c-.28,.5-.66,.9-1.14,1.18-.97,.55-2.32,.56-3.29,0-.48-.28-.86-.67-1.14-1.18-.29-.51-.43-1.11-.43-1.8s.14-1.3,.43-1.81c.28-.5,.67-.9,1.14-1.17,.48-.28,1.03-.42,1.63-.42s1.17,.14,1.66,.42c.48,.28,.87,.67,1.14,1.17,.28,.51,.42,1.12,.42,1.81s-.14,1.29-.42,1.8Z"/>
      <path class="cls-1" d="M243.83,437.6h0c-.42-.2-.88-.36-1.37-.47-.48-.11-.95-.21-1.42-.28-.45-.08-.85-.17-1.21-.28-.31-.1-.56-.23-.74-.39-.13-.12-.19-.29-.19-.53,0-.32,.13-.57,.43-.79,.33-.24,.91-.37,1.69-.37,.46,0,.93,.06,1.39,.18,.45,.12,.87,.31,1.27,.59l.46,.31,1.07-1.97-.38-.25c-.46-.31-1.05-.56-1.75-.74-1.6-.42-3.29-.34-4.42,.13-.67,.28-1.2,.68-1.56,1.19-.36,.51-.54,1.1-.54,1.75s.15,1.23,.44,1.65c.28,.41,.65,.73,1.1,.97,.41,.21,.88,.38,1.39,.49,.47,.1,.94,.19,1.42,.27,.44,.07,.85,.16,1.22,.26,.3,.08,.54,.21,.73,.37,.08,.07,.18,.2,.18,.49,0,.33-.13,.57-.42,.78-.23,.16-.72,.35-1.76,.35-.63,0-1.25-.1-1.83-.3-.58-.21-1.06-.45-1.43-.72l-.45-.34-1.09,1.91,.32,.27c.46,.4,1.1,.72,1.9,.98,.77,.25,1.61,.38,2.49,.38,.95,0,1.74-.13,2.41-.39,.7-.27,1.25-.66,1.62-1.15,.39-.51,.59-1.12,.59-1.81,0-.64-.15-1.18-.44-1.6-.28-.41-.66-.73-1.13-.95Z"/>
      <rect class="cls-1" x="253.05" y="429.1" width="2.41" height="14.3"/>
      <path class="cls-1" d="M263.91,440.95c-.3,.26-.67,.39-1.15,.39-.42,0-.72-.1-.92-.32-.21-.22-.31-.56-.31-1v-5.47h3.04v-2.12h-3.04v-2.2h-2.35v2.2h-1.79v2.12h1.79v5.54c0,1.06,.31,1.9,.91,2.5,.6,.6,1.45,.91,2.52,.91,.44,0,.87-.06,1.29-.19,.45-.14,.84-.35,1.15-.64l.28-.25-.93-1.89-.49,.43Z"/>
      <path class="cls-1" d="M273.37,437.6h0c-.42-.2-.88-.36-1.37-.47-.48-.11-.95-.21-1.42-.28-.45-.08-.85-.17-1.21-.28-.31-.1-.56-.23-.74-.39-.13-.12-.19-.29-.19-.53,0-.32,.13-.57,.43-.79,.33-.24,.91-.37,1.69-.37,.46,0,.93,.06,1.39,.18,.45,.12,.87,.31,1.27,.59l.46,.31,1.07-1.97-.38-.25c-.46-.31-1.05-.56-1.75-.74-1.6-.42-3.29-.34-4.42,.13-.67,.28-1.2,.68-1.56,1.19-.36,.51-.54,1.1-.54,1.75s.15,1.23,.44,1.65c.28,.41,.65,.73,1.1,.97,.41,.21,.88,.38,1.39,.49,.47,.1,.94,.19,1.42,.27,.44,.07,.85,.16,1.22,.26,.3,.08,.54,.21,.73,.37,.08,.07,.18,.2,.18,.49,0,.33-.13,.57-.42,.78-.23,.16-.72,.35-1.76,.35-.63,0-1.25-.1-1.83-.3-.58-.21-1.06-.45-1.43-.72l-.45-.34-1.09,1.91,.32,.27c.46,.4,1.1,.72,1.9,.98,.77,.25,1.61,.38,2.49,.38,.95,0,1.74-.13,2.41-.39,.7-.27,1.25-.66,1.62-1.15,.39-.51,.59-1.12,.59-1.81,0-.64-.15-1.18-.44-1.6-.28-.41-.66-.73-1.13-.95Z"/>
      <path class="cls-1" d="M293.26,436.85c.49-.75,.74-1.66,.74-2.69s-.25-1.98-.74-2.73c-.49-.76-1.19-1.34-2.09-1.75-.87-.39-1.92-.58-3.11-.58h-5.48v14.3h2.41v-4.22h3.07c.29,0,.55-.03,.82-.06l3.03,4.28h2.77l-3.44-4.83c.87-.4,1.55-.98,2.03-1.72Zm-1.67-2.69c0,.9-.28,1.58-.86,2.07-.59,.5-1.5,.76-2.71,.76h-3.04v-5.67h3.04c1.2,0,2.11,.25,2.71,.76,.58,.49,.86,1.17,.86,2.09Z"/>
      <path class="cls-1" d="M303.62,433.04c-1.6-.93-3.87-.95-5.5,.02-.81,.48-1.46,1.15-1.93,1.98-.46,.83-.7,1.8-.7,2.87s.25,2.05,.73,2.88c.49,.84,1.17,1.51,2.03,1.99,.86,.48,1.86,.72,2.98,.72,.86,0,1.66-.15,2.39-.46,.74-.31,1.36-.77,1.86-1.36l.27-.33-1.42-1.63-.38,.44c-.33,.39-.71,.66-1.17,.85-1.04,.43-2.39,.36-3.34-.14-.52-.28-.92-.66-1.21-1.16-.15-.25-.26-.55-.32-.89h8.29v-.5c0-.06,0-.12,0-.17,0-.09,.01-.17,.01-.25,0-1.08-.23-2.05-.69-2.89-.46-.84-1.1-1.51-1.91-1.98Zm.2,3.78h-5.9c.06-.3,.15-.56,.27-.79,.26-.49,.62-.86,1.09-1.13,.94-.55,2.27-.54,3.18,0,.46,.27,.81,.64,1.08,1.13,.12,.23,.22,.49,.28,.79Z"/>
      <path class="cls-1" d="M312.14,432.33c-.83,0-1.64,.13-2.4,.38-.77,.25-1.44,.62-1.99,1.09l-.32,.28,1.14,1.88,.45-.39c.36-.31,.8-.57,1.32-.76,.54-.2,1.08-.29,1.67-.29,.8,0,1.4,.18,1.77,.54,.38,.36,.56,.89,.56,1.6v.11h-2.67c-1.03,0-1.84,.14-2.48,.44-.66,.3-1.14,.72-1.44,1.23-.29,.5-.44,1.06-.44,1.67,0,.67,.17,1.27,.52,1.79,.35,.52,.84,.92,1.47,1.2,.61,.28,1.33,.42,2.15,.42,1.04,0,1.93-.22,2.63-.67,.11-.07,.21-.14,.31-.22v.79h2.29v-6.7c0-1.45-.41-2.55-1.22-3.29-.8-.72-1.92-1.09-3.33-1.09Zm1.8,8.16c-.16,.2-.35,.36-.57,.5h0c-.47,.3-1.04,.45-1.7,.45s-1.21-.14-1.56-.41c-.32-.24-.47-.55-.47-.97,0-.37,.13-.66,.4-.9,.19-.17,.63-.38,1.67-.38h2.64v1.04c-.11,.26-.24,.49-.41,.68Z"/>
      <path class="cls-1" d="M327.59,433.49c-.22-.2-.46-.37-.71-.51-.77-.43-1.64-.65-2.59-.65-1.03,0-1.98,.24-2.8,.7-.83,.47-1.49,1.13-1.97,1.97-.47,.83-.71,1.81-.71,2.91s.24,2.06,.71,2.9c.48,.85,1.14,1.51,1.96,1.98,.83,.47,1.77,.71,2.8,.71,.97,0,1.85-.22,2.62-.67,.26-.15,.51-.33,.74-.55v1.12h2.29v-15.1h-2.35v5.19Zm-.41,6.21h0c-.28,.5-.66,.9-1.14,1.17-.97,.55-2.32,.56-3.29,0-.48-.28-.86-.67-1.14-1.18-.29-.51-.43-1.12-.43-1.8s.14-1.3,.43-1.81c.28-.5,.67-.9,1.14-1.17,.48-.28,1.03-.42,1.63-.42s1.17,.14,1.66,.42c.48,.28,.87,.67,1.14,1.17,.28,.5,.42,1.11,.42,1.81s-.14,1.29-.42,1.8Z"/>
      <path class="cls-1" d="M340.29,433.04c-1.6-.93-3.87-.95-5.5,.02-.82,.48-1.47,1.15-1.93,1.98-.46,.83-.7,1.8-.7,2.87s.25,2.05,.73,2.88c.49,.84,1.17,1.51,2.03,1.99,.86,.48,1.86,.72,2.98,.72,.86,0,1.67-.15,2.39-.46,.74-.31,1.36-.77,1.86-1.36l.27-.33-1.42-1.63-.38,.44c-.33,.38-.71,.66-1.17,.85-1.04,.43-2.39,.36-3.34-.14-.52-.28-.92-.66-1.21-1.16-.15-.25-.25-.55-.32-.89h8.29v-.5c0-.06,0-.12,0-.16,0-.09,.01-.18,.01-.26,0-1.08-.23-2.05-.69-2.89-.46-.84-1.1-1.51-1.91-1.98Zm-5.43,2.99c.26-.49,.62-.86,1.08-1.13,.94-.55,2.28-.54,3.18,0,.45,.27,.82,.65,1.08,1.13,.12,.23,.22,.49,.28,.79h-5.9c.06-.3,.15-.56,.27-.79Z"/>
      <path class="cls-1" d="M350.61,432.33c-1.06,0-1.98,.23-2.71,.67-.18,.11-.35,.24-.51,.38v-.96h-2.29v10.98h2.35v-5.59c0-1.04,.26-1.85,.76-2.39,.5-.54,1.19-.8,2.1-.8h.08c.07,.01,.15,.02,.22,.02h.5v-2.31h-.5Z"/>
    </g>
    <path class="cls-4" d="M138.26,63.64c9.47-.13,18.94-.05,28.42-.05,9.47,0,18.95-.1,28.42,.05,3.27,.05,4.84-.85,4.71-4.41-.19-5.25,.11-10.53-.03-15.78-.23-8.71-6.64-15.27-15.39-15.42-11.75-.2-23.51-.21-35.26,.01-8.51,.16-14.9,6.66-15.17,15.09-.17,5.43,.07,10.88-.08,16.31-.09,3.24,1.28,4.24,4.38,4.2Z"/>
    <path class="cls-2" d="M82.58,188.61c2.01,0,3.39,0,4.77,0,39.88,0,79.76,.02,119.64-.06,2.93,0,6.06-.23,8.76-1.25,8.36-3.15,10.48-13.99,3.61-19.68-2.57-2.13-6.61-3.44-9.99-3.46-40.23-.24-80.46-.15-120.69-.17-2.02,0-4.04-.19-5.98-.29v-27.2c2.04-.1,3.76-.25,5.47-.25,39.88-.01,79.77,.62,119.64-.25,23.8-.52,44.1,17.22,43.71,43.97-.65,44.7-.18,89.41-.18,134.05h47.42c-.18-2.52-.22-4.62-.48-6.69-2.12-16.89-4.24-33.79-6.42-50.67-6.92-53.78-13.9-107.55-20.71-161.34-.42-3.34-1.75-3.89-4.71-3.86-11.42,.14-22.84,.03-34.26,.06-1.32,0-2.64,.29-4.35,.49,0,5.47,.21,10.56-.14,15.61-.09,1.3-1.91,3.5-3,3.54-8.03,.3-16.08,.16-24.91,.16v-18.99c-1.25-.42-1.73-.73-2.22-.73-20.03-.04-40.05-.02-60.08-.12-2.88-.01-3.62,1.26-3.58,3.82,.09,5.2,.03,10.41,.03,15.61h-28.07v-19.43c-13.97,0-26.94-.09-39.91,.15-1.13,.02-3.03,2.09-3.21,3.39-3.67,27.12-7.17,54.27-10.63,81.42-4.48,35.17-8.89,70.36-13.34,105.53-1.33,10.57-2.68,21.13-4.06,32h47.86v-125.36Zm4.52-17.63c40.52,.17,81.03,.1,121.55,.08,4.03,0,7.77,.68,7.6,5.73-.16,4.58-3.68,5.4-7.52,5.39-20.17-.01-40.34,0-60.51,0v-.03c-20.35,0-40.69-.13-61.04,.1-4.51,.05-5.18-1.79-5.14-5.59,.04-3.68,.45-5.69,5.06-5.67Z"/>
    <path class="cls-3" d="M223.39,220.14c0-1.7,0-3.4,0-4.22H110.23v99h101.06c10.71-1.66,12.33-9.35,12.22-18.88-.31-25.29-.12-50.59-.13-75.89Z"/>
    <path class="cls-3" d="M211.3,341.95h18.28v-.1h-18.28v.1Z"/>
    <path class="cls-5" d="M110.23,341.95h101.06v-.1h119.3c-.93-7.83-1.72-15.13-2.67-22.41-4.74-36.71-9.57-73.41-14.27-110.13-6-46.83-12-93.66-17.72-140.52-.56-4.62-2.42-5.26-6.33-5.23-18.62,.14-37.24,.05-55.86,.03-1.85,0-3.69-.15-5.91-.25,0-6.43,0-12.22,0-18,0-25.92-18.79-45.02-44.63-45.26-10.36-.1-20.73-.09-31.09-.01-28.09,.21-46.29,18.64-46.29,46.8,0,5.39,0,10.77,0,16.73-2.63,0-4.51,0-6.4,0-18.45,0-36.89,.09-55.34-.07-3.98-.03-5.77,.77-6.33,5.29-4.62,37.8-9.56,75.57-14.41,113.35-5.87,45.77-11.77,91.53-17.62,137.3-.94,7.39-1.7,14.81-2.57,22.49H110.23Zm-71.46-59.99c4.44-35.18,8.85-70.36,13.34-105.53,3.46-27.15,6.97-54.3,10.63-81.42,.18-1.3,2.08-3.37,3.21-3.39,12.97-.24,25.94-.15,39.91-.15v19.43h28.07c0-5.2,.06-10.41-.03-15.61-.04-2.56,.7-3.84,3.58-3.82,20.03,.1,40.05,.08,60.08,.12,.48,0,.97,.31,2.22,.73v18.99c8.82,0,16.87,.14,24.91-.16,1.09-.04,2.91-2.24,3-3.54,.35-5.05,.14-10.14,.14-15.61,1.71-.2,3.03-.49,4.35-.49,11.42-.03,22.84,.09,34.26-.06,2.96-.04,4.28,.51,4.71,3.86,6.81,53.79,13.79,107.56,20.71,161.34,2.17,16.89,4.3,33.78,6.42,50.67,.26,2.07,.31,4.17,.48,6.69h-47.42c0-44.64-.47-89.35,.18-134.05,.39-26.75-19.91-44.48-43.71-43.97-39.86,.87-79.76,.24-119.64,.25-1.71,0-3.43,.15-5.47,.25v27.2c1.95,.1,3.96,.29,5.98,.29,40.23,.02,80.46-.06,120.69,.17,3.38,.02,7.42,1.34,9.99,3.46,6.87,5.69,4.76,16.53-3.61,19.68-2.7,1.02-5.83,1.24-8.76,1.25-39.88,.08-79.76,.06-119.64,.06-1.38,0-2.76,0-4.77,0v125.36H34.72c1.38-10.87,2.72-21.44,4.06-32Zm172.52,32.95H110.23v-99h113.15c0,.82,0,2.52,0,4.22,0,25.3-.18,50.6,.13,75.89,.12,9.54-1.51,17.22-12.22,18.88ZM133.96,43.12c.27-8.43,6.65-14.93,15.17-15.09,11.75-.22,23.51-.21,35.26-.01,8.76,.15,15.17,6.71,15.39,15.42,.14,5.26-.17,10.53,.03,15.78,.13,3.56-1.44,4.46-4.71,4.41-9.47-.15-18.94-.05-28.42-.05-9.47,0-18.95-.08-28.42,.05-3.11,.04-4.48-.96-4.38-4.2,.16-5.43-.09-10.88,.08-16.31Z"/>
    <path class="cls-5" d="M87.19,182.24c20.34-.24,40.69-.1,61.04-.1v.03c20.17,0,40.34,0,60.51,0,3.84,0,7.37-.81,7.52-5.39,.17-5.05-3.57-5.73-7.6-5.73-40.52,.02-81.04,.09-121.55-.08-4.61-.02-5.02,1.99-5.06,5.67-.04,3.8,.63,5.65,5.14,5.59Z"/>
    <path class="cls-1" d="M53.36,381.49H24.84v9.66h16.64c-1.02,3.07-2.65,5.42-4.87,7.05-2.22,1.64-4.94,2.45-8.16,2.45-4.7,0-8.4-1.39-11.08-4.18-2.68-2.78-4.03-6.65-4.03-11.61,0-4.65,1.28-8.37,3.83-11.16,2.55-2.78,5.95-4.18,10.2-4.18,2.45,0,4.59,.47,6.4,1.42,1.81,.95,3.21,2.32,4.18,4.1h14.49c-1.43-5.52-4.36-9.84-8.78-12.96-4.42-3.12-9.85-4.68-16.29-4.68-5.32,0-10.04,1.16-14.18,3.48-4.14,2.33-7.38,5.57-9.7,9.74-2.33,4.17-3.49,8.9-3.49,14.22s1.16,10.05,3.49,14.19c2.32,4.14,5.57,7.37,9.74,9.7,4.17,2.32,8.91,3.49,14.22,3.49,4.5,0,8.54-.87,12.12-2.61,3.58-1.74,6.53-4.01,8.86-6.83,2.32-2.81,3.97-5.85,4.94-9.12v-12.19Z"/>
    <path class="cls-1" d="M111.83,370.6c-2.43-4.19-5.75-7.47-9.97-9.81-4.22-2.35-8.85-3.53-13.92-3.53s-9.7,1.17-13.92,3.53c-4.22,2.35-7.56,5.62-10.04,9.81-2.48,4.19-3.72,8.92-3.72,14.18s1.24,10.01,3.72,14.23c2.48,4.21,5.83,7.5,10.04,9.85,4.22,2.35,8.86,3.53,13.92,3.53s9.69-1.17,13.88-3.53c4.19-2.35,7.52-5.64,9.97-9.85,2.45-4.22,3.68-8.96,3.68-14.23s-1.21-9.99-3.64-14.18Zm-13.57,25.53c-2.58,2.86-6.02,4.29-10.31,4.29s-7.81-1.42-10.39-4.26c-2.58-2.84-3.87-6.63-3.87-11.39s1.29-8.61,3.87-11.42c2.58-2.81,6.04-4.21,10.39-4.21s7.73,1.42,10.31,4.26c2.58,2.84,3.87,6.63,3.87,11.38s-1.29,8.49-3.87,11.35Z"/>
    <path class="cls-1" d="M161.32,387.93c-1.58-2.05-3.46-3.61-5.64-4.68-2.17-1.07-5-2.19-8.47-3.37-3.48-1.12-6.03-2.17-7.67-3.14-1.64-.97-2.45-2.33-2.45-4.06,0-1.59,.48-2.8,1.45-3.64,.97-.84,2.25-1.27,3.84-1.27,1.84,0,3.35,.5,4.52,1.49,1.17,1,1.81,2.37,1.92,4.1h14.18c-.26-5.06-2.2-9.01-5.83-11.84-3.63-2.84-8.41-4.26-14.34-4.26s-10.56,1.42-14.19,4.26c-3.63,2.84-5.44,6.76-5.44,11.77,0,3.37,.79,6.11,2.38,8.2,1.58,2.1,3.47,3.68,5.67,4.75,2.2,1.08,5.03,2.15,8.51,3.22,2.4,.72,4.26,1.35,5.56,1.92,1.3,.57,2.4,1.28,3.3,2.15,.89,.87,1.34,1.97,1.34,3.3,0,1.58-.56,2.82-1.69,3.72-1.12,.9-2.66,1.34-4.6,1.34s-3.43-.52-4.6-1.57c-1.18-1.04-1.87-2.57-2.07-4.56h-13.96c.1,3.53,1.09,6.54,2.95,9.05,1.87,2.51,4.36,4.4,7.48,5.68,3.12,1.28,6.65,1.92,10.58,1.92s7.54-.74,10.5-2.22c2.97-1.48,5.23-3.48,6.79-5.98s2.34-5.29,2.34-8.36c0-3.22-.79-5.85-2.38-7.9Z"/>
    <path class="cls-1" d="M222.93,370.6c-2.43-4.19-5.75-7.47-9.97-9.81-4.22-2.35-8.85-3.53-13.92-3.53s-9.7,1.17-13.92,3.53c-4.22,2.35-7.56,5.62-10.04,9.81s-3.72,8.92-3.72,14.18,1.24,10.01,3.72,14.23c2.48,4.21,5.83,7.5,10.04,9.85,4.22,2.35,8.86,3.53,13.92,3.53s9.69-1.17,13.88-3.53c4.19-2.35,7.52-5.64,9.97-9.85,2.45-4.22,3.68-8.96,3.68-14.23s-1.21-9.99-3.64-14.18Zm-13.57,25.53c-2.58,2.86-6.02,4.29-10.31,4.29s-7.81-1.42-10.39-4.26c-2.58-2.84-3.87-6.63-3.87-11.39s1.29-8.61,3.87-11.42c2.58-2.81,6.04-4.21,10.39-4.21s7.73,1.42,10.31,4.26c2.58,2.84,3.87,6.63,3.87,11.38s-1.29,8.49-3.87,11.35Z"/>
    <path class="cls-1" d="M268.28,384.25c2.76-.82,4.97-2.27,6.63-4.37s2.49-4.73,2.49-7.9c0-4.29-1.55-7.69-4.64-10.2-3.09-2.5-7.37-3.75-12.84-3.75h-24.23v53.82h25.07c5.62,0,10.01-1.31,13.15-3.95,3.14-2.63,4.71-6.19,4.71-10.7,0-3.12-.95-5.89-2.84-8.32-1.89-2.43-4.4-3.97-7.51-4.64Zm-19.48-15.72h8.59c2.15,0,3.8,.48,4.95,1.45,1.15,.97,1.72,2.38,1.72,4.22s-.58,3.23-1.72,4.18c-1.15,.95-2.8,1.42-4.95,1.42h-8.59v-11.27Zm14.76,31.24c-1.2,1-2.9,1.49-5.1,1.49h-9.66v-11.88h9.51c2.2,0,3.92,.54,5.17,1.61,1.25,1.07,1.88,2.56,1.88,4.45s-.6,3.34-1.8,4.33Z"/>
    <path class="cls-1" d="M313.52,412.39c5.06,0,9.69-1.17,13.88-3.53,4.19-2.35,7.52-5.64,9.97-9.85,2.45-4.22,3.68-8.96,3.68-14.23s-1.21-9.99-3.64-14.18c-2.43-4.19-5.75-7.47-9.97-9.81-4.22-2.35-8.85-3.53-13.92-3.53s-9.7,1.17-13.92,3.53c-4.22,2.35-7.56,5.62-10.04,9.81s-3.72,8.92-3.72,14.18,1.24,10.01,3.72,14.23c2.48,4.21,5.83,7.5,10.04,9.85,4.22,2.35,8.86,3.53,13.92,3.53Zm-10.39-39.03c2.58-2.81,6.04-4.21,10.39-4.21s7.73,1.42,10.31,4.26c2.58,2.84,3.87,6.63,3.87,11.38s-1.29,8.49-3.87,11.35c-2.58,2.86-6.02,4.29-10.31,4.29s-7.81-1.42-10.39-4.26c-2.58-2.84-3.87-6.63-3.87-11.39s1.29-8.61,3.87-11.42Z"/>
    <g>
      <polygon class="cls-1" points="17.9 439.56 14.32 429.1 12.32 429.1 8.71 439.51 5.22 429.1 2.72 429.1 7.54 443.4 9.72 443.4 13.28 433.11 16.82 443.4 19.02 443.4 23.84 429.1 21.44 429.1 17.9 439.56"/>
      <path class="cls-1" d="M33.62,432.85c-.68-.34-1.48-.52-2.36-.52-1.05,0-1.97,.23-2.75,.69-.18,.1-.34,.22-.5,.35v-5.07h-2.35v15.1h2.35v-5.75c0-.68,.12-1.25,.37-1.71,.24-.45,.57-.79,1.01-1.03,.45-.24,.99-.37,1.62-.37,.82,0,1.42,.21,1.86,.66,.43,.44,.65,1.12,.65,2.04v6.16h2.35v-6.3c0-1.04-.2-1.93-.58-2.64-.4-.72-.95-1.26-1.66-1.62Z"/>
      <path class="cls-1" d="M46.1,433.04c-1.6-.93-3.87-.95-5.5,.02-.81,.48-1.46,1.15-1.93,1.98-.46,.83-.7,1.8-.7,2.87s.25,2.05,.73,2.88c.49,.84,1.17,1.51,2.03,1.99,.86,.48,1.86,.72,2.98,.72,.86,0,1.66-.15,2.39-.46,.74-.31,1.36-.77,1.86-1.36l.27-.33-1.42-1.63-.38,.44c-.33,.39-.71,.66-1.17,.85-1.04,.43-2.39,.36-3.34-.14-.52-.28-.92-.66-1.21-1.16-.15-.25-.25-.55-.32-.89h8.29v-.5c0-.06,0-.12,0-.17,0-.09,.01-.17,.01-.25,0-1.08-.23-2.05-.69-2.89-.46-.84-1.1-1.51-1.91-1.98Zm.2,3.78h-5.9c.06-.3,.15-.56,.27-.79,.26-.49,.62-.86,1.09-1.13,.94-.55,2.27-.54,3.18,0,.46,.27,.81,.64,1.08,1.13,.12,.23,.22,.49,.28,.79Z"/>
      <path class="cls-1" d="M53.72,433c-.18,.11-.36,.24-.52,.38v-.96h-2.29v10.98h2.35v-5.59c0-1.04,.25-1.85,.76-2.39,.5-.54,1.19-.8,2.11-.8h.08c.07,.01,.15,.02,.22,.02h.5v-2.31h-.5c-1.07,0-1.98,.23-2.71,.67Z"/>
      <path class="cls-1" d="M65.87,433.04c-1.6-.93-3.87-.95-5.5,.02-.82,.48-1.47,1.15-1.93,1.98-.46,.83-.7,1.8-.7,2.87s.25,2.05,.73,2.88c.49,.84,1.17,1.51,2.03,1.99,.86,.48,1.86,.72,2.98,.72,.86,0,1.67-.15,2.39-.46,.74-.31,1.36-.77,1.86-1.36l.27-.33-1.42-1.63-.38,.44c-.33,.39-.71,.67-1.17,.85-1.04,.43-2.39,.36-3.34-.14-.52-.28-.92-.66-1.21-1.16-.15-.25-.25-.55-.32-.89h8.29v-.5c0-.06,0-.12,0-.17,0-.09,.01-.17,.01-.25,0-1.08-.23-2.05-.69-2.89-.46-.84-1.1-1.51-1.91-1.98Zm.2,3.78h-5.9c.06-.3,.15-.56,.27-.79,.26-.49,.62-.86,1.08-1.13,.93-.54,2.28-.54,3.18,0,.45,.27,.82,.65,1.08,1.13,.12,.23,.22,.49,.28,.79Z"/>
      <polygon class="cls-1" points="78.8 437.24 85.68 437.24 85.68 435.05 78.8 435.05 78.8 431.32 86.52 431.32 86.52 429.1 76.4 429.1 76.4 443.4 86.8 443.4 86.8 441.19 78.8 441.19 78.8 437.24"/>
      <polygon class="cls-1" points="96.32 432.42 92.86 440.2 89.44 432.42 86.94 432.42 91.81 443.4 93.85 443.4 98.75 432.42 96.32 432.42"/>
      <path class="cls-1" d="M106.67,433.04c-1.6-.93-3.87-.95-5.5,.02-.82,.48-1.47,1.15-1.93,1.98-.46,.83-.7,1.8-.7,2.87s.25,2.05,.73,2.88c.49,.84,1.17,1.51,2.03,1.99,.86,.48,1.86,.72,2.98,.72,.86,0,1.67-.15,2.39-.46,.74-.31,1.36-.77,1.86-1.36l.27-.33-1.42-1.63-.38,.44c-.33,.39-.71,.67-1.17,.85-1.04,.43-2.39,.36-3.34-.14-.52-.28-.92-.66-1.21-1.16-.15-.25-.25-.55-.32-.89h8.29v-.5c0-.06,0-.12,0-.17,0-.09,.01-.17,.01-.25,0-1.08-.23-2.05-.69-2.89-.46-.84-1.1-1.51-1.91-1.98Zm-5.42,2.99c.26-.49,.62-.86,1.08-1.13,.93-.54,2.28-.54,3.18,0,.45,.27,.82,.65,1.08,1.13,.12,.23,.22,.49,.28,.79h-5.9c.06-.3,.15-.56,.27-.79Z"/>
      <path class="cls-1" d="M117.5,432.33h-.5c-1.06,0-1.98,.23-2.71,.67-.18,.11-.36,.24-.52,.38v-.96h-2.29v10.98h2.35v-5.59c0-1.04,.26-1.85,.76-2.39,.5-.54,1.19-.8,2.1-.8h.08c.07,.02,.15,.02,.22,.02h.5v-2.31Z"/>
      <path class="cls-1" d="M123.65,440.17l-3.44-7.75h-2.5l4.69,10.46-.34,.76c-.32,.68-.6,.98-.77,1.12-.45,.34-1.16,.33-1.64,.11-.24-.11-.47-.26-.69-.47l-.44-.42-1.16,1.86,.28,.28c.35,.35,.78,.62,1.28,.8,.48,.17,.99,.26,1.51,.26s1.05-.09,1.5-.27c.46-.19,.89-.5,1.28-.94,.37-.42,.71-.98,1-1.67l5.32-11.88h-2.43l-3.44,7.75Z"/>
      <path class="cls-1" d="M146.41,435.92c.28-.22,.53-.49,.74-.79,.39-.58,.59-1.29,.59-2.11,0-1.25-.48-2.24-1.43-2.93-.9-.66-2.16-.99-3.74-.99h-6.24v14.3h6.62c1.77,0,3.14-.35,4.05-1.03,.96-.72,1.44-1.74,1.44-3.02,0-.86-.2-1.59-.6-2.19-.35-.53-.83-.95-1.43-1.24Zm-1.08,4.8c-.54,.34-1.35,.52-2.41,.52h-4.2v-4h4.2c1.06,0,1.87,.17,2.41,.52,.47,.3,.7,.79,.7,1.47s-.23,1.18-.7,1.49Zm-.67-6.16c-.5,.34-1.24,.52-2.2,.52h-3.74v-3.83h3.74c.96,0,1.7,.17,2.2,.51,.45,.31,.66,.75,.66,1.4s-.21,1.08-.67,1.39Z"/>
      <path class="cls-1" d="M158.28,433.05c-.84-.48-1.81-.72-2.88-.72s-2.02,.24-2.85,.71c-.83,.47-1.5,1.13-1.99,1.97-.49,.83-.73,1.8-.73,2.9s.25,2.03,.73,2.87c.49,.85,1.16,1.52,1.99,2,.83,.48,1.79,.72,2.85,.72s2.03-.24,2.87-.72c.85-.48,1.53-1.15,2-1.99,.48-.84,.72-1.81,.72-2.88s-.24-2.05-.72-2.88c-.48-.83-1.15-1.49-1.99-1.97Zm-.08,6.66h0c-.28,.51-.65,.9-1.13,1.18-.95,.55-2.34,.56-3.31,0-.48-.28-.85-.66-1.14-1.18-.29-.51-.43-1.12-.43-1.8s.14-1.3,.43-1.81c.28-.5,.67-.9,1.14-1.17,.49-.28,1.03-.42,1.65-.42s1.17,.14,1.65,.42h0c.48,.28,.85,.66,1.13,1.17,.28,.5,.42,1.11,.42,1.81s-.14,1.29-.42,1.8Z"/>
      <path class="cls-1" d="M170.65,433.05c-.84-.48-1.81-.72-2.88-.72s-2.02,.24-2.85,.71c-.83,.47-1.5,1.13-1.99,1.97-.49,.83-.74,1.8-.74,2.9s.25,2.03,.73,2.87c.49,.85,1.15,1.52,1.99,2,.83,.48,1.79,.72,2.85,.72s2.02-.24,2.87-.72c.85-.48,1.52-1.15,2-1.99s.72-1.81,.72-2.88-.24-2.05-.72-2.88c-.48-.83-1.15-1.49-1.99-1.97Zm-1.21,1.87c.48,.28,.86,.67,1.13,1.17,.28,.51,.42,1.11,.42,1.81s-.14,1.29-.42,1.8h0c-.28,.51-.66,.9-1.13,1.18-.95,.55-2.34,.56-3.31,0-.47-.28-.85-.66-1.13-1.18-.29-.51-.43-1.12-.43-1.8s.14-1.3,.43-1.81c.28-.5,.67-.9,1.14-1.17,.48-.28,1.03-.42,1.65-.42s1.16,.14,1.65,.42Z"/>
      <polygon class="cls-1" points="186.29 432.42 183.2 432.42 177.92 437.23 177.92 428.3 175.57 428.3 175.57 443.4 177.92 443.4 177.92 440.27 179.72 438.61 183.57 443.4 186.5 443.4 181.46 437.05 186.29 432.42"/>
      <polygon class="cls-1" points="193.17 443.4 195.58 443.4 195.58 437.76 202.46 437.76 202.46 435.54 195.58 435.54 195.58 431.32 203.3 431.32 203.3 429.1 193.17 429.1 193.17 443.4"/>
      <path class="cls-1" d="M205.51,428.72c-.29,.28-.44,.63-.44,1.03s.15,.76,.43,1.04,.65,.43,1.06,.43,.8-.15,1.07-.44c.27-.28,.41-.65,.41-1.05s-.15-.76-.45-1.03c-.57-.52-1.53-.52-2.09,.02Z"/>
      <rect class="cls-1" x="205.38" y="432.42" width="2.35" height="10.98"/>
      <path class="cls-1" d="M218.9,432.85c-.68-.34-1.48-.52-2.36-.52-1.05,0-1.97,.23-2.75,.69-.2,.12-.38,.25-.56,.4v-.99h-2.29v10.98h2.35v-5.75c0-.69,.12-1.25,.37-1.71,.24-.45,.57-.79,1.01-1.03,.45-.24,.99-.37,1.62-.37,.82,0,1.42,.21,1.86,.66,.43,.44,.65,1.12,.65,2.04v6.16h2.35v-6.3c0-1.04-.2-1.93-.58-2.64-.4-.72-.96-1.26-1.66-1.62Z"/>
      <path class="cls-1" d="M232.03,433.49c-.22-.2-.46-.37-.71-.51-.77-.43-1.64-.65-2.59-.65-1.03,0-1.98,.24-2.8,.7-.83,.47-1.49,1.13-1.97,1.97-.47,.83-.71,1.81-.71,2.91s.24,2.06,.71,2.9c.47,.85,1.14,1.51,1.96,1.98,.83,.47,1.77,.71,2.81,.71,.97,0,1.85-.22,2.62-.67,.26-.15,.51-.33,.74-.55v1.12h2.29v-15.1h-2.35v5.19Zm-.41,6.21h0c-.28,.5-.66,.9-1.14,1.18-.97,.55-2.32,.56-3.29,0-.48-.28-.86-.67-1.14-1.18-.29-.51-.43-1.11-.43-1.8s.14-1.3,.43-1.81c.28-.5,.67-.9,1.14-1.17,.48-.28,1.03-.42,1.63-.42s1.17,.14,1.66,.42c.48,.28,.87,.67,1.14,1.17,.28,.51,.42,1.12,.42,1.81s-.14,1.29-.42,1.8Z"/>
      <path class="cls-1" d="M243.83,437.6h0c-.42-.2-.88-.36-1.37-.47-.48-.11-.95-.21-1.42-.28-.45-.08-.85-.17-1.21-.28-.31-.1-.56-.23-.74-.39-.13-.12-.19-.29-.19-.53,0-.32,.13-.57,.43-.79,.33-.24,.91-.37,1.69-.37,.46,0,.93,.06,1.39,.18,.45,.12,.87,.31,1.27,.59l.46,.31,1.07-1.97-.38-.25c-.46-.31-1.05-.56-1.75-.74-1.6-.42-3.29-.34-4.42,.13-.67,.28-1.2,.68-1.56,1.19-.36,.51-.54,1.1-.54,1.75s.15,1.23,.44,1.65c.28,.41,.65,.73,1.1,.97,.41,.21,.88,.38,1.39,.49,.47,.1,.94,.19,1.42,.27,.44,.07,.85,.16,1.22,.26,.3,.08,.54,.21,.73,.37,.08,.07,.18,.2,.18,.49,0,.33-.13,.57-.42,.78-.23,.16-.72,.35-1.76,.35-.63,0-1.25-.1-1.83-.3-.58-.21-1.06-.45-1.43-.72l-.45-.34-1.09,1.91,.32,.27c.46,.4,1.1,.72,1.9,.98,.77,.25,1.61,.38,2.49,.38,.95,0,1.74-.13,2.41-.39,.7-.27,1.25-.66,1.62-1.15,.39-.51,.59-1.12,.59-1.81,0-.64-.15-1.18-.44-1.6-.28-.41-.66-.73-1.13-.95Z"/>
      <rect class="cls-1" x="253.05" y="429.1" width="2.41" height="14.3"/>
      <path class="cls-1" d="M263.91,440.95c-.3,.26-.67,.39-1.15,.39-.42,0-.72-.1-.92-.32-.21-.22-.31-.56-.31-1v-5.47h3.04v-2.12h-3.04v-2.2h-2.35v2.2h-1.79v2.12h1.79v5.54c0,1.06,.31,1.9,.91,2.5,.6,.6,1.45,.91,2.52,.91,.44,0,.87-.06,1.29-.19,.45-.14,.84-.35,1.15-.64l.28-.25-.93-1.89-.49,.43Z"/>
      <path class="cls-1" d="M273.37,437.6h0c-.42-.2-.88-.36-1.37-.47-.48-.11-.95-.21-1.42-.28-.45-.08-.85-.17-1.21-.28-.31-.1-.56-.23-.74-.39-.13-.12-.19-.29-.19-.53,0-.32,.13-.57,.43-.79,.33-.24,.91-.37,1.69-.37,.46,0,.93,.06,1.39,.18,.45,.12,.87,.31,1.27,.59l.46,.31,1.07-1.97-.38-.25c-.46-.31-1.05-.56-1.75-.74-1.6-.42-3.29-.34-4.42,.13-.67,.28-1.2,.68-1.56,1.19-.36,.51-.54,1.1-.54,1.75s.15,1.23,.44,1.65c.28,.41,.65,.73,1.1,.97,.41,.21,.88,.38,1.39,.49,.47,.1,.94,.19,1.42,.27,.44,.07,.85,.16,1.22,.26,.3,.08,.54,.21,.73,.37,.08,.07,.18,.2,.18,.49,0,.33-.13,.57-.42,.78-.23,.16-.72,.35-1.76,.35-.63,0-1.25-.1-1.83-.3-.58-.21-1.06-.45-1.43-.72l-.45-.34-1.09,1.91,.32,.27c.46,.4,1.1,.72,1.9,.98,.77,.25,1.61,.38,2.49,.38,.95,0,1.74-.13,2.41-.39,.7-.27,1.25-.66,1.62-1.15,.39-.51,.59-1.12,.59-1.81,0-.64-.15-1.18-.44-1.6-.28-.41-.66-.73-1.13-.95Z"/>
      <path class="cls-1" d="M293.26,436.85c.49-.75,.74-1.66,.74-2.69s-.25-1.98-.74-2.73c-.49-.76-1.19-1.34-2.09-1.75-.87-.39-1.92-.58-3.11-.58h-5.48v14.3h2.41v-4.22h3.07c.29,0,.55-.03,.82-.06l3.03,4.28h2.77l-3.44-4.83c.87-.4,1.55-.98,2.03-1.72Zm-1.67-2.69c0,.9-.28,1.58-.86,2.07-.59,.5-1.5,.76-2.71,.76h-3.04v-5.67h3.04c1.2,0,2.11,.25,2.71,.76,.58,.49,.86,1.17,.86,2.09Z"/>
      <path class="cls-1" d="M303.62,433.04c-1.6-.93-3.87-.95-5.5,.02-.81,.48-1.46,1.15-1.93,1.98-.46,.83-.7,1.8-.7,2.87s.25,2.05,.73,2.88c.49,.84,1.17,1.51,2.03,1.99,.86,.48,1.86,.72,2.98,.72,.86,0,1.66-.15,2.39-.46,.74-.31,1.36-.77,1.86-1.36l.27-.33-1.42-1.63-.38,.44c-.33,.39-.71,.66-1.17,.85-1.04,.43-2.39,.36-3.34-.14-.52-.28-.92-.66-1.21-1.16-.15-.25-.26-.55-.32-.89h8.29v-.5c0-.06,0-.12,0-.17,0-.09,.01-.17,.01-.25,0-1.08-.23-2.05-.69-2.89-.46-.84-1.1-1.51-1.91-1.98Zm.2,3.78h-5.9c.06-.3,.15-.56,.27-.79,.26-.49,.62-.86,1.09-1.13,.94-.55,2.27-.54,3.18,0,.46,.27,.81,.64,1.08,1.13,.12,.23,.22,.49,.28,.79Z"/>
      <path class="cls-1" d="M312.14,432.33c-.83,0-1.64,.13-2.4,.38-.77,.25-1.44,.62-1.99,1.09l-.32,.28,1.14,1.88,.45-.39c.36-.31,.8-.57,1.32-.76,.54-.2,1.08-.29,1.67-.29,.8,0,1.4,.18,1.77,.54,.38,.36,.56,.89,.56,1.6v.11h-2.67c-1.03,0-1.84,.14-2.48,.44-.66,.3-1.14,.72-1.44,1.23-.29,.5-.44,1.06-.44,1.67,0,.67,.17,1.27,.52,1.79,.35,.52,.84,.92,1.47,1.2,.61,.28,1.33,.42,2.15,.42,1.04,0,1.93-.22,2.63-.67,.11-.07,.21-.14,.31-.22v.79h2.29v-6.7c0-1.45-.41-2.55-1.22-3.29-.8-.72-1.92-1.09-3.33-1.09Zm1.8,8.16c-.16,.2-.35,.36-.57,.5h0c-.47,.3-1.04,.45-1.7,.45s-1.21-.14-1.56-.41c-.32-.24-.47-.55-.47-.97,0-.37,.13-.66,.4-.9,.19-.17,.63-.38,1.67-.38h2.64v1.04c-.11,.26-.24,.49-.41,.68Z"/>
      <path class="cls-1" d="M327.59,433.49c-.22-.2-.46-.37-.71-.51-.77-.43-1.64-.65-2.59-.65-1.03,0-1.98,.24-2.8,.7-.83,.47-1.49,1.13-1.97,1.97-.47,.83-.71,1.81-.71,2.91s.24,2.06,.71,2.9c.48,.85,1.14,1.51,1.96,1.98,.83,.47,1.77,.71,2.8,.71,.97,0,1.85-.22,2.62-.67,.26-.15,.51-.33,.74-.55v1.12h2.29v-15.1h-2.35v5.19Zm-.41,6.21h0c-.28,.5-.66,.9-1.14,1.17-.97,.55-2.32,.56-3.29,0-.48-.28-.86-.67-1.14-1.18-.29-.51-.43-1.12-.43-1.8s.14-1.3,.43-1.81c.28-.5,.67-.9,1.14-1.17,.48-.28,1.03-.42,1.63-.42s1.17,.14,1.66,.42c.48,.28,.87,.67,1.14,1.17,.28,.5,.42,1.11,.42,1.81s-.14,1.29-.42,1.8Z"/>
      <path class="cls-1" d="M340.29,433.04c-1.6-.93-3.87-.95-5.5,.02-.82,.48-1.47,1.15-1.93,1.98-.46,.83-.7,1.8-.7,2.87s.25,2.05,.73,2.88c.49,.84,1.17,1.51,2.03,1.99,.86,.48,1.86,.72,2.98,.72,.86,0,1.67-.15,2.39-.46,.74-.31,1.36-.77,1.86-1.36l.27-.33-1.42-1.63-.38,.44c-.33,.38-.71,.66-1.17,.85-1.04,.43-2.39,.36-3.34-.14-.52-.28-.92-.66-1.21-1.16-.15-.25-.25-.55-.32-.89h8.29v-.5c0-.06,0-.12,0-.16,0-.09,.01-.18,.01-.26,0-1.08-.23-2.05-.69-2.89-.46-.84-1.1-1.51-1.91-1.98Zm-5.43,2.99c.26-.49,.62-.86,1.08-1.13,.94-.55,2.28-.54,3.18,0,.45,.27,.82,.65,1.08,1.13,.12,.23,.22,.49,.28,.79h-5.9c.06-.3,.15-.56,.27-.79Z"/>
      <path class="cls-1" d="M350.61,432.33c-1.06,0-1.98,.23-2.71,.67-.18,.11-.35,.24-.51,.38v-.96h-2.29v10.98h2.35v-5.59c0-1.04,.26-1.85,.76-2.39,.5-.54,1.19-.8,2.1-.8h.08c.07,.01,.15,.02,.22,.02h.5v-2.31h-.5Z"/>
    </g>
  </g>
</svg>